<svg width="82" height="82" viewBox="0 0 82 82" fill="none" xmlns="http://www.w3.org/2000/svg">
<path d="M55.7685 21.9878C55.7685 23.0206 54.9308 23.8577 53.8979 23.8577C52.865 23.8577 52.0273 23.0206 52.0273 21.9878C52.0273 20.9549 52.865 20.1172 53.8979 20.1172C54.9308 20.1172 55.7685 20.9549 55.7685 21.9878Z" fill="#42AF54"/>
<path d="M30.0244 21.9878C30.0244 23.0206 29.1867 23.8577 28.1538 23.8577C27.1209 23.8577 26.2832 23.0206 26.2832 21.9878C26.2832 20.9549 27.1209 20.1172 28.1538 20.1172C29.1867 20.1172 30.0244 20.9549 30.0244 21.9878Z" fill="#42AF54"/>
<path d="M21.5931 41.8753C20.9256 41.8346 20.3638 42.3489 20.3281 43.012C20.2862 43.7978 20.2155 44.5723 20.1179 45.313C20.0309 45.9712 20.4945 46.5755 21.1527 46.6618C21.2065 46.6687 21.259 46.6725 21.3116 46.6725C21.9053 46.6725 22.422 46.2321 22.5021 45.6271C22.6078 44.8244 22.6842 43.988 22.7292 43.1397C22.7649 42.4765 22.2556 41.9103 21.5931 41.8753Z" fill="#42AF54"/>
<path d="M21.1753 35.1578C20.5153 35.2291 20.0373 35.8216 20.1086 36.4822C20.1943 37.2793 20.2606 38.0663 20.3051 38.8201C20.3426 39.4589 20.8725 39.9519 21.5043 39.9519C21.5275 39.9519 21.5519 39.9512 21.5757 39.9494C22.2388 39.9106 22.7443 39.3413 22.7055 38.6788C22.6586 37.8861 22.5892 37.0603 22.4997 36.2245C22.4284 35.5645 21.8365 35.0871 21.1753 35.1578Z" fill="#42AF54"/>
<path d="M20.7466 48.5439C20.1091 48.3562 19.441 48.721 19.2533 49.3578C19.0437 50.0704 18.8053 50.7949 18.5244 51.5719C18.298 52.1962 18.6214 52.8857 19.2458 53.1115C19.3809 53.1603 19.5192 53.1835 19.6549 53.1835C20.1466 53.1835 20.6083 52.8794 20.7854 52.3902C21.0832 51.5662 21.3366 50.7967 21.5605 50.0366C21.7482 49.3998 21.3835 48.7316 20.7466 48.5439Z" fill="#42AF54"/>
<path d="M21.8635 31.8102C21.7277 31.0394 21.5738 30.2643 21.4149 29.4723C21.2842 28.821 20.6498 28.3994 19.9991 28.5301C19.3479 28.6609 18.9262 29.2946 19.057 29.9453C19.2134 30.7235 19.3642 31.483 19.4949 32.225L19.5062 32.2888C19.6131 32.8675 20.1186 33.2722 20.6867 33.2722C20.7599 33.2722 20.8331 33.266 20.9075 33.2522C21.56 33.1309 21.9917 32.504 21.871 31.8509L21.8635 31.8102Z" fill="#42AF54"/>
<path d="M18.5152 54.8917C17.9059 54.6271 17.1977 54.9074 16.9343 55.5167C16.6347 56.2068 16.3294 56.8949 16.0241 57.5831L15.969 57.7082C15.6994 58.3151 15.9734 59.0257 16.5802 59.2948C16.7391 59.3648 16.9043 59.398 17.067 59.398C17.528 59.398 17.9678 59.1315 18.1668 58.6829L18.2225 58.5578C18.5303 57.864 18.8381 57.1696 19.1402 56.4733C19.4042 55.8639 19.1246 55.1557 18.5152 54.8917Z" fill="#42AF54"/>
<path d="M15.8081 61.0569C15.1925 60.8079 14.4919 61.1044 14.2422 61.72C13.9107 62.539 13.6241 63.2903 13.3664 64.0154C13.1443 64.6416 13.4721 65.3286 14.0977 65.5506C14.2304 65.5982 14.3661 65.6201 14.5 65.6201C14.9942 65.6201 15.4578 65.3123 15.633 64.8199C15.8782 64.128 16.1522 63.4092 16.4713 62.6228C16.7203 62.0078 16.4237 61.3065 15.8081 61.0569Z" fill="#42AF54"/>
<path d="M66.0832 57.7082L66.0638 57.6638C65.7466 56.9487 65.4294 56.2337 65.1185 55.5167C64.8545 54.9074 64.1463 54.6271 63.5369 54.8917C62.9276 55.1557 62.648 55.8639 62.912 56.4733C63.226 57.1965 63.5457 57.9178 63.866 58.6391L63.8854 58.6835C64.0844 59.1321 64.5242 59.398 64.9852 59.398C65.1479 59.398 65.3137 59.3648 65.472 59.2948C66.0788 59.0251 66.3528 58.3151 66.0832 57.7082Z" fill="#42AF54"/>
<path d="M63.5278 51.5719C63.2469 50.7949 63.0085 50.0705 62.7989 49.3579C62.6112 48.721 61.9431 48.3575 61.3056 48.544C60.6687 48.7316 60.304 49.3998 60.4917 50.0367C60.7156 50.7968 60.969 51.5663 61.2668 52.3902C61.4439 52.8794 61.9056 53.1835 62.3973 53.1835C62.533 53.1835 62.6713 53.1603 62.8064 53.1115C63.4308 52.8857 63.7536 52.1963 63.5278 51.5719Z" fill="#42AF54"/>
<path d="M67.5516 65.6203C67.6855 65.6203 67.8213 65.5984 67.9539 65.5509C68.5795 65.3288 68.9067 64.6419 68.6852 64.0157C68.4275 63.2906 68.1409 62.5392 67.8094 61.7203C67.5597 61.1047 66.8584 60.8075 66.2435 61.0571C65.6279 61.3068 65.3313 62.0081 65.5803 62.623C65.8988 63.4094 66.1734 64.1283 66.4186 64.8202C66.5938 65.3125 67.0574 65.6203 67.5516 65.6203Z" fill="#42AF54"/>
<path d="M61.3651 33.2726C61.9381 33.2726 62.4455 32.8622 62.5481 32.2785L62.5568 32.2278C62.6882 31.4827 62.839 30.7232 62.9948 29.9462C63.1255 29.2949 62.7039 28.6612 62.0526 28.5304C61.4013 28.4003 60.7682 28.8213 60.6375 29.4726C60.4786 30.2646 60.3247 31.0398 60.1883 31.813L60.1795 31.8618C60.0644 32.5162 60.5017 33.1393 61.1555 33.2544C61.2262 33.2663 61.2962 33.2726 61.3651 33.2726Z" fill="#42AF54"/>
<path d="M59.5526 36.2254C59.4626 37.0612 59.3937 37.8864 59.3468 38.6791C59.308 39.3422 59.8135 39.9115 60.4767 39.9503C60.5004 39.9516 60.5242 39.9522 60.548 39.9522C61.1799 39.9522 61.7097 39.4598 61.7473 38.8205C61.7917 38.0666 61.8574 37.2802 61.9437 36.4825C62.0144 35.8225 61.5371 35.2294 60.8771 35.1588C60.212 35.0856 59.6233 35.5648 59.5526 36.2254Z" fill="#42AF54"/>
<path d="M60.8986 46.6619C61.5567 46.575 62.0203 45.9712 61.9339 45.3125C61.8363 44.5724 61.7656 43.7979 61.7237 43.0115C61.6881 42.3483 61.1188 41.8341 60.4587 41.8754C59.7956 41.9104 59.287 42.4766 59.322 43.1397C59.3671 43.9881 59.444 44.8245 59.5497 45.6265C59.6292 46.2315 60.1459 46.6719 60.7403 46.6719C60.7922 46.6726 60.8454 46.6688 60.8986 46.6619Z" fill="#42AF54"/>
<path d="M40.3853 51.4489C40.3853 51.0955 40.6725 50.8077 41.0259 50.8077C41.38 50.8077 41.6672 51.0955 41.6672 51.4489C41.6672 52.1133 42.2058 52.6514 42.8696 52.6514C43.534 52.6514 44.072 52.1133 44.072 51.4489C44.072 49.7692 42.7057 48.4028 41.0259 48.4028C39.3468 48.4028 37.9805 49.7692 37.9805 51.4489C37.9805 52.1133 38.5185 52.6514 39.1829 52.6514C39.8467 52.6514 40.3853 52.1133 40.3853 51.4489Z" fill="#42AF54"/>
<path d="M46.7785 61.2477L41.0316 66.6373L35.2716 61.247C34.7868 60.7929 34.026 60.8185 33.5725 61.3034C33.1189 61.7876 33.1439 62.5489 33.6288 63.0025L39.6102 68.6005V80.7974C39.6102 81.4611 40.1483 81.9998 40.8127 81.9998C41.4764 81.9998 42.0151 81.4611 42.0151 80.7974V69.0128L48.4232 63.0019C48.9074 62.5477 48.9318 61.787 48.4776 61.3021C48.0234 60.8179 47.2627 60.7935 46.7785 61.2477Z" fill="#42AF54"/>
<path d="M71.5878 46.1088C70.8934 44.192 70.0557 42.3314 69.2461 40.5321C68.2057 38.2205 67.1297 35.8301 66.3908 33.3746C63.2709 22.9995 65.1421 10.5486 66.8263 2.07345L66.9708 1.51666C67.1378 0.87353 66.7518 0.217266 66.1087 0.0508538C65.4662 -0.116809 64.8099 0.269817 64.6429 0.912943L64.4902 1.50289C64.484 1.52541 64.479 1.54731 64.4746 1.57046C63.8346 4.78734 63.169 8.56727 62.7473 12.6037C62.447 12 62.1336 11.4044 61.8214 10.8138C60.2905 7.91539 58.8448 5.17835 59.3158 2.06532C59.4153 1.40843 58.9636 0.795329 58.3074 0.696483C57.6498 0.596385 57.038 1.04807 56.9385 1.70496C56.3486 5.60188 58.0502 8.82252 59.695 11.9368C61.0306 14.4649 62.2919 16.8522 62.2919 19.4754C62.2919 25.0033 57.7944 29.5002 52.2671 29.5002C46.7392 29.5002 42.2417 25.0033 42.2417 19.4754C42.2417 18.7947 42.3105 18.1147 42.4457 17.4541C42.5789 16.8034 42.1591 16.1678 41.5085 16.0352C41.344 16.0014 41.1807 16.0033 41.0255 16.0352C40.871 16.0033 40.7077 16.0014 40.5432 16.0352C39.8926 16.1678 39.4728 16.8034 39.606 17.4541C39.7412 18.1147 39.81 18.7947 39.81 19.4754C39.81 21.5943 39.1568 23.6194 37.9225 25.3317C37.534 25.8704 37.656 26.6217 38.1947 27.0102C38.4074 27.1635 38.6532 27.2373 38.8966 27.2373C39.2701 27.2373 39.6379 27.064 39.8732 26.7381C40.3217 26.1162 40.7059 25.4606 41.0287 24.7787C43.0225 28.9872 47.3098 31.905 52.2671 31.905C56.4537 31.905 60.1623 29.8236 62.4157 26.6417C62.4176 26.6424 62.4195 26.6424 62.4214 26.643C62.4864 26.6536 62.5515 26.6586 62.6159 26.6586C62.6203 26.6586 62.6241 26.6586 62.6284 26.658C62.9031 29.1792 63.3679 31.671 64.0886 34.0671C64.8725 36.6734 65.9811 39.137 67.0534 41.5194C67.8454 43.2779 68.6637 45.0966 69.3275 46.9284C71.2349 52.1904 71.9782 58.0761 71.4783 63.9493C71.2869 66.1971 70.9146 68.4068 70.3754 70.5457C70.2509 69.8069 70.1026 69.0543 69.933 68.3067C69.786 67.6586 69.1417 67.2532 68.4941 67.4002C67.8466 67.5472 67.4412 68.1916 67.5883 68.8391C67.7622 69.6048 67.9123 70.375 68.0356 71.1276C68.1319 71.7169 68.6418 72.136 69.2211 72.136C69.2849 72.136 69.3506 72.1304 69.4163 72.1198C69.654 72.081 69.8636 71.974 70.0294 71.8239C69.8098 72.5877 69.5683 73.341 69.3049 74.0829C68.7932 74.225 68.4191 74.6948 68.4241 75.251C68.4247 75.316 68.4247 75.3811 68.4247 75.4455V75.5412C68.4241 75.7277 68.4666 75.9041 68.5417 76.0617C67.9411 77.4963 67.2611 78.8789 66.4985 80.1945C66.1656 80.7695 66.3614 81.5045 66.9358 81.838C67.1259 81.9481 67.333 82 67.5376 82C67.9524 82 68.3559 81.7854 68.5786 81.4007C74.5751 71.0556 75.7281 57.5331 71.5878 46.1088Z" fill="#42AF54"/>
<path d="M13.5105 76.0611C13.5856 75.9034 13.6281 75.7276 13.6275 75.5412L13.6268 75.4448C13.6268 75.3804 13.6275 75.316 13.6281 75.2509C13.6331 74.6947 13.259 74.2243 12.7466 74.0823C12.4839 73.3409 12.2424 72.5877 12.0228 71.8232C12.1886 71.974 12.3981 72.0803 12.6352 72.1197C12.7016 72.1304 12.7666 72.1354 12.8311 72.1354C13.4098 72.1354 13.9196 71.7168 14.0166 71.1269C14.1398 70.3743 14.29 69.6041 14.4639 68.8384C14.6109 68.1909 14.2055 67.5465 13.5574 67.4001C12.9111 67.2525 12.2661 67.6585 12.1191 68.306C11.949 69.0542 11.8013 69.8062 11.6768 70.5451C11.1375 68.4061 10.7653 66.1964 10.5745 63.9492C10.074 58.076 10.8178 52.1896 12.7241 46.9283C13.314 45.3017 14.0229 43.6932 14.641 42.3144C14.9125 41.7082 14.6416 40.9969 14.036 40.7253C13.4298 40.4532 12.7185 40.7247 12.4469 41.3309C11.8113 42.7492 11.0812 44.4052 10.4638 46.1087C6.32409 57.533 7.47709 71.0556 13.4736 81.4C13.6963 81.7848 14.0998 81.9994 14.5146 81.9994C14.7192 81.9994 14.9262 81.9474 15.1164 81.8373C15.6907 81.5039 15.8865 80.7688 15.5537 80.1939C14.7905 78.8788 14.1104 77.4956 13.5105 76.0611Z" fill="#42AF54"/>
<path d="M35.8296 29.0149C35.535 28.42 34.8149 28.176 34.2187 28.47C32.8342 29.1538 31.3421 29.501 29.785 29.501C24.2571 29.501 19.7602 25.0035 19.7602 19.4762C19.7602 16.8524 21.0214 14.4651 22.3565 11.937C24.0019 8.82273 25.7035 5.60209 25.1136 1.70516C25.0141 1.0489 24.4016 0.597206 23.7447 0.696678C23.0878 0.79615 22.6368 1.40862 22.7362 2.06551C23.2073 5.17918 21.7615 7.91622 20.2307 10.814C19.9185 11.4046 19.6051 12.0002 19.3041 12.6039C18.8825 8.56811 18.2175 4.78754 17.5768 1.57066C17.5725 1.54813 17.5675 1.52624 17.5618 1.50372L17.406 0.901878C17.2396 0.258751 16.584 -0.12725 15.9409 0.039162C15.2977 0.204949 14.9117 0.861214 15.0781 1.50434L15.2252 2.07302C16.9093 10.5482 18.7811 22.9991 15.6612 33.3748C15.3734 34.3307 15.0193 35.3317 14.5789 36.4359C14.333 37.0528 14.634 37.7522 15.2508 37.9981C15.3966 38.0562 15.5474 38.0838 15.6956 38.0838C16.173 38.0838 16.6247 37.7972 16.813 37.3268C17.279 36.1569 17.6557 35.0909 17.9635 34.0674C18.6842 31.6713 19.149 29.1795 19.4236 26.6583C19.428 26.6583 19.4324 26.6589 19.4368 26.6589C19.5006 26.6589 19.5657 26.6539 19.6307 26.6432C19.6326 26.6426 19.6345 26.6426 19.6363 26.642C21.8898 29.8238 25.5978 31.9052 29.785 31.9052C31.715 31.9052 33.5649 31.4748 35.2841 30.6259C35.8797 30.3318 36.1237 29.6105 35.8296 29.0149Z" fill="#42AF54"/>
</svg>
