<svg width="56" height="56" viewBox="0 0 56 56" fill="none" xmlns="http://www.w3.org/2000/svg">
<g clip-path="url(#clip0)">
<path d="M50.9897 44.8898L48.7291 44.105C49.9946 43.1027 50.8085 41.5543 50.8085 39.8184V38.1616C50.8085 35.1469 48.3557 32.6941 45.3411 32.6941C42.3264 32.6941 39.8736 35.1469 39.8736 38.1616V39.8184C39.8736 41.5543 40.6879 43.1027 41.9534 44.105L39.6924 44.8898C38.2424 45.3936 37.0234 46.3173 36.1506 47.4952H30.0435V45.0851C30.0435 41.9128 28.0299 39.0823 25.0332 38.0419L22.7722 37.2571C24.0377 36.2548 24.8521 34.7064 24.8521 32.9705V31.3137C24.8521 28.2986 22.3992 25.8462 19.3846 25.8462C16.3699 25.8462 13.9171 28.299 13.9171 31.3137V32.9705C13.9171 34.7064 14.7314 36.2548 15.9965 37.2571L13.736 38.0419C10.7393 39.0823 8.72565 41.9128 8.72565 45.0851V47.4952H0.82843C0.37085 47.4952 0 47.866 0 48.3236V55.1715C0 55.6291 0.37085 55.9999 0.82843 55.9999H35.2901C35.3273 55.9999 35.364 55.9965 35.4003 55.9918C35.4366 55.9965 35.4734 55.9999 35.511 55.9999H55.1716C55.6292 55.9999 56 55.6291 56 55.1715V51.933C56 48.7611 53.9868 45.9306 50.9897 44.8898ZM41.5305 38.1616C41.5305 36.0604 43.2399 34.351 45.3411 34.351C47.4423 34.351 49.1517 36.0604 49.1517 38.1616V39.8184C49.1517 41.9196 47.4423 43.629 45.3411 43.629C43.2399 43.629 41.5305 41.9196 41.5305 39.8184V38.1616ZM15.574 31.3137C15.574 29.2125 17.2834 27.5031 19.3846 27.5031C21.4858 27.5031 23.1952 29.2125 23.1952 31.3137V32.9705C23.1952 35.0717 21.4858 36.7811 19.3846 36.7811C17.2834 36.7811 15.574 35.0717 15.574 32.9705V31.3137ZM21.1226 38.438L21.9276 38.7174L19.3846 43.1296L16.8416 38.7174L17.6465 38.438H21.1226ZM10.3825 45.0851C10.3825 42.6177 11.9488 40.4161 14.2794 39.6069L15.2484 39.2707L18.6668 45.2026C18.8146 45.4593 19.0885 45.6174 19.3846 45.6174C19.6807 45.6174 19.9545 45.4593 20.1024 45.2026L23.5208 39.2707L24.4897 39.6069C26.8204 40.4161 28.3862 42.6177 28.3862 45.0851V47.4952H10.3825V45.0851ZM1.65686 49.152H35.2222C34.8727 50.0189 34.6826 50.9597 34.6826 51.933V54.3431H1.65686V49.152ZM54.3431 54.3431H36.3394V51.933C36.3394 49.4656 37.9053 47.2645 40.2359 46.4548L43.603 45.2859H47.0791L50.4462 46.4548C52.7773 47.2645 54.3431 49.4656 54.3431 51.933V54.3431Z" fill="#42AF54"/>
<path d="M50.7534 5.96436H42.3384C41.8808 5.96436 41.5099 6.33563 41.5099 6.79279C41.5099 7.25037 41.8808 7.62122 42.3384 7.62122H50.7534C52.7328 7.62122 54.3431 9.23151 54.3431 11.2114V22.6983C54.3431 24.6777 52.7328 26.288 50.7534 26.288H39.3767C38.9191 26.288 38.5483 26.6589 38.5483 27.1165V30.6395L34.4399 26.5307C34.2844 26.3752 34.0737 26.288 33.8541 26.288H27.1165C25.137 26.288 23.5263 24.6777 23.5263 22.6983V11.2109C23.5263 9.23151 25.1366 7.62122 27.1165 7.62122H38.4654C38.923 7.62122 39.2938 7.25037 39.2938 6.79279C39.2938 6.33521 38.923 5.96436 38.4654 5.96436H34.1301V5.24658C34.1301 2.3537 31.7764 0 28.8835 0H5.24658C2.3537 0 0 2.3537 0 5.24658V7.07819C0 7.53577 0.37085 7.90662 0.82843 7.90662C1.28601 7.90662 1.65686 7.53577 1.65686 7.07819V5.24658C1.65686 3.26715 3.26715 1.65686 5.24658 1.65686H28.8835C30.863 1.65686 32.4733 3.26715 32.4733 5.24658V5.96436H27.1165C24.2236 5.96436 21.8699 8.31805 21.8699 11.2109V20.3232H13.1993C12.7418 20.3232 12.3709 20.6941 12.3709 21.1517V24.6747L8.26251 20.5659C8.10699 20.4104 7.89636 20.3232 7.67676 20.3232H5.24658C3.26715 20.3232 1.65686 18.713 1.65686 16.7335V10.9302C1.65686 10.4727 1.28601 10.1018 0.82843 10.1018C0.37085 10.1018 0 10.4727 0 10.9302V16.7335C0 19.6268 2.3537 21.9801 5.24658 21.9801H7.33325L12.6136 27.2604C12.7721 27.4189 12.984 27.5031 13.1993 27.5027C13.3062 27.5027 13.4138 27.4822 13.5164 27.4399C13.8257 27.3117 14.0278 27.0096 14.0278 26.6747V21.9801H21.8699V22.6983C21.8699 25.5912 24.2236 27.9445 27.1165 27.9445H33.511L38.791 33.2248C38.9495 33.3833 39.1614 33.4675 39.3767 33.4675C39.4835 33.4675 39.5912 33.447 39.6937 33.4042C40.0031 33.2761 40.2051 32.974 40.2051 32.639V27.9445H50.7534C53.6463 27.9445 56 25.5912 56 22.6983V11.2109C56 8.31805 53.6463 5.96436 50.7534 5.96436Z" fill="#42AF54"/>
</g>
<defs>
<clipPath id="clip0">
<rect width="56" height="56" fill="white"/>
</clipPath>
</defs>
</svg>
