<svg width="56" height="56" viewBox="0 0 56 56" fill="none" xmlns="http://www.w3.org/2000/svg">
<path d="M53.6775 26.2607L51.0635 24.4267C50.8974 18.419 48.394 12.7131 44.0858 8.52278C39.7776 4.33241 34.0046 1.9882 27.9946 1.98877C21.9846 1.98934 16.212 4.33465 11.9046 8.52583C7.59718 12.717 5.09489 18.4233 4.92997 24.4311L2.32203 26.2607C2.22139 26.3314 2.13924 26.4252 2.08251 26.5343C2.02578 26.6435 1.99614 26.7646 1.99609 26.8876V35.0299C1.99627 35.152 2.02562 35.2722 2.08171 35.3806C2.13781 35.4889 2.219 35.5823 2.31853 35.6529L5.24366 37.7433C5.37299 37.8362 5.52805 37.8865 5.68728 37.8872H8.60016C8.80318 37.8871 8.99785 37.8064 9.14141 37.6629C9.28497 37.5193 9.36567 37.3246 9.36578 37.1216V24.8826C9.36578 24.8721 9.36928 24.8616 9.36972 24.8506C9.46994 19.9767 11.4765 15.3363 14.9588 11.9248C18.4411 8.51338 23.1218 6.6027 27.9967 6.6027C32.8716 6.6027 37.5523 8.51338 41.0347 11.9248C44.517 15.3363 46.5235 19.9767 46.6237 24.8506C46.6237 24.8795 46.6303 24.9066 46.6338 24.9342V37.1203C46.6339 37.3233 46.7146 37.518 46.8582 37.6616C47.0017 37.8051 47.1964 37.8858 47.3994 37.8859H48.0902V38.7679C48.0877 39.9312 47.6698 41.0553 46.9118 41.9377C46.1537 42.82 45.1054 43.4026 43.9558 43.5804C44.9315 41.3712 45.4347 38.9824 45.4333 36.5673V25.3481C45.4333 20.7236 43.5962 16.2885 40.3262 13.0185C37.0562 9.74855 32.6212 7.91149 27.9967 7.91149C23.3723 7.91149 18.9372 9.74855 15.6672 13.0185C12.3972 16.2885 10.5602 20.7236 10.5602 25.3481V36.5695C10.559 40.4183 11.8317 44.1593 14.1798 47.2088C16.5278 50.2584 19.8192 52.4451 23.5404 53.4278C27.2616 54.4106 31.2035 54.134 34.751 52.6414C38.2986 51.1488 41.2524 48.524 43.1517 45.1764H43.213C44.912 45.1746 46.541 44.4988 47.7424 43.2974C48.9438 42.096 49.6196 40.467 49.6215 38.7679V37.8872H50.3123C50.472 37.8873 50.6277 37.8374 50.7577 37.7446L53.6828 35.6542C53.782 35.5834 53.8629 35.49 53.9186 35.3816C53.9744 35.2732 54.0035 35.1531 54.0035 35.0312V26.8876C54.0034 26.7646 53.9738 26.6435 53.9171 26.5343C53.8603 26.4252 53.7782 26.3314 53.6775 26.2607ZM27.9963 9.44274C32.213 9.44795 36.2556 11.1254 39.2373 14.1071C42.219 17.0887 43.8964 21.1313 43.9016 25.3481V29.4711C43.3709 29.5278 42.8376 29.5579 42.3038 29.5612C39.5398 29.5546 36.8256 28.8241 34.4316 27.4424C32.0376 26.0608 30.0472 24.0762 28.6587 21.6862C28.5914 21.5701 28.4948 21.4737 28.3785 21.4068C28.2623 21.3398 28.1305 21.3045 27.9963 21.3045C27.8621 21.3045 27.7303 21.3398 27.6141 21.4068C27.4978 21.4737 27.4012 21.5701 27.3339 21.6862C25.9453 24.0762 23.955 26.0608 21.561 27.4424C19.167 28.8241 16.4528 29.5546 13.6887 29.5612C13.155 29.5579 12.6217 29.5278 12.091 29.4711V25.3481C12.0962 21.1312 13.7736 17.0886 16.7554 14.1069C19.7372 11.1252 23.7799 9.44783 27.9967 9.44274H27.9963ZM27.9963 52.4748C23.7796 52.4695 19.7372 50.792 16.7556 47.8103C13.774 44.8287 12.0966 40.7862 12.0914 36.5695V31.0102C12.6225 31.0587 13.1558 31.0924 13.6892 31.0924C16.5105 31.0856 19.2877 30.3915 21.7804 29.07C24.2731 27.7486 26.4063 25.8396 27.9954 23.5084C29.5849 25.8402 31.7188 27.7496 34.2124 29.071C36.7059 30.3925 39.484 31.0863 42.306 31.0924C42.8393 31.0924 43.3727 31.0587 43.9038 31.0102V36.5695C43.9052 39.0256 43.3341 41.4482 42.236 43.6452H35.0545C34.8921 43.1434 34.5749 42.7058 34.1486 42.3953C33.7222 42.0848 33.2085 41.9172 32.681 41.9166H29.6483C28.9869 41.9166 28.3526 42.1793 27.8849 42.647C27.4173 43.1147 27.1545 43.749 27.1545 44.4104C27.1545 45.0717 27.4173 45.706 27.8849 46.1737C28.3526 46.6414 28.9869 46.9041 29.6483 46.9041H32.681C33.2084 46.9033 33.7221 46.7356 34.1484 46.425C34.5746 46.1144 34.8917 45.6769 35.054 45.1751H41.3615C39.9223 47.4128 37.9447 49.2536 35.6098 50.5289C33.2748 51.8042 30.6572 52.4733 27.9967 52.4748H27.9963ZM33.64 44.4576C33.6283 44.7042 33.5222 44.9368 33.3438 45.1073C33.1654 45.2779 32.9283 45.3734 32.6815 45.3742H29.6483C29.393 45.3742 29.1482 45.2728 28.9677 45.0923C28.7872 44.9118 28.6858 44.6669 28.6858 44.4117C28.6858 44.1564 28.7872 43.9116 28.9677 43.7311C29.1482 43.5506 29.393 43.4492 29.6483 43.4492H32.681C32.9279 43.4499 33.165 43.5454 33.3434 43.716C33.5218 43.8866 33.6278 44.1192 33.6396 44.3657C33.6396 44.3815 33.6348 44.3964 33.6348 44.4121C33.6348 44.4279 33.6387 44.4419 33.64 44.4576ZM7.83453 36.356H5.93272L3.52647 34.6375V27.2875L5.92791 25.6027H7.83366L7.83453 36.356ZM27.9967 5.07474C22.8596 5.10225 17.9244 7.07856 14.1881 10.6044C10.4519 14.1302 8.19312 18.9427 7.86822 24.0697H6.46822C6.72644 18.5338 9.10731 13.3101 13.1163 9.48381C17.1253 5.65748 22.4542 3.52258 27.9961 3.52258C33.538 3.52258 38.8669 5.65748 42.8758 9.48381C46.8848 13.3101 49.2657 18.5338 49.5239 24.0697H48.1248C47.8006 18.9422 45.5423 14.129 41.8061 10.6024C38.0699 7.0759 33.1343 5.09902 27.9967 5.07124V5.07474ZM52.4722 34.6397L50.066 36.3582H48.1642V25.6009H50.0699L52.4713 27.2857L52.4722 34.6397Z" fill="#42AF54"/>
</svg>
