<svg width="101" height="100" viewBox="0 0 101 100" fill="none" xmlns="http://www.w3.org/2000/svg">
<g clip-path="url(#clip0)">
<path d="M98.8827 58.7242C88.2747 42.9505 72.5959 33.9043 55.866 33.9043C55.8645 33.9043 55.8668 33.9043 55.8652 33.9043C39.1353 33.9043 23.4543 42.952 12.8463 58.7242C11.7638 60.334 11.1677 62.3268 11.1449 64.3837C10.0479 66.1644 10.1356 68.412 11.4117 70.1165C16.4092 76.7899 22.6356 82.116 29.9177 85.9467C36.8843 89.6126 44.4347 91.7229 52.3587 92.2188C53.1652 92.2699 53.8604 91.6558 53.9107 90.8478C53.9618 90.0406 53.3482 89.3448 52.5409 89.2945C37.1335 88.3301 22.9962 80.6992 13.7534 68.3586C13.1703 67.5797 13.1687 66.5322 13.7504 65.7517C13.7603 65.7395 13.7717 65.7288 13.7816 65.7158C19.0932 58.6609 25.921 53.1845 33.6499 49.5911C31.4141 53.167 30.1883 57.3372 30.1883 61.6127C30.1883 74.0959 40.3359 84.2514 52.8077 84.2514C63.8037 84.2514 73.1715 76.397 75.081 65.5747C75.222 64.7782 74.6899 64.0183 73.8941 63.8771C73.099 63.736 72.339 64.2685 72.198 65.065C70.5362 74.485 62.3813 81.3217 52.8077 81.3217C41.9497 81.3217 33.1163 72.4808 33.1163 61.6127C33.1163 56.2645 35.3185 51.1032 39.1696 47.3992C47.0692 44.7708 55.5969 44.0491 63.8708 45.308C68.4201 48.4055 71.4792 53.2685 72.2834 58.6983C72.4015 59.4994 73.1455 60.051 73.9459 59.9327C74.7456 59.8145 75.2975 59.0691 75.1793 58.2688C74.5276 53.8674 72.586 49.7917 69.6649 46.5226C80.0244 49.318 89.4204 55.2727 96.5379 63.9237C98.0327 65.7402 98.0205 68.3792 96.5379 70.1813C87.1518 81.5903 73.888 88.3789 59.1896 89.2975C58.3823 89.3479 57.7694 90.0429 57.8197 90.8509C57.8685 91.6275 58.5127 92.2249 59.2795 92.2249C59.31 92.2249 59.3413 92.2234 59.3718 92.2219C66.865 91.7534 74.0428 89.83 80.7059 86.5052C87.6786 83.0262 93.7662 78.1601 98.798 72.0436C100.246 70.2835 100.81 68.0397 100.496 65.9005C100.823 63.3477 100.241 60.7437 98.8827 58.7242ZM55.866 36.834C70.3106 36.834 83.9578 44.056 93.8782 56.8001C84.5295 48.0095 72.5106 42.7536 59.6416 41.8984C44.7252 40.9035 29.5389 45.8092 17.9246 56.7078C27.8382 44.0209 41.4549 36.834 55.866 36.834Z" fill="#42AF54"/>
<path d="M14.4052 17.4621C14.1163 17.6239 13.8282 17.7871 13.5408 17.9527C12.8402 18.3555 12.5986 19.2512 13.0011 19.9523C13.4036 20.6527 14.2977 20.8969 14.9998 20.4925C15.2773 20.3331 15.5548 20.1751 15.833 20.0203C16.5389 19.625 16.7912 18.7324 16.3971 18.0267C16.0022 17.3202 15.1111 17.0677 14.4052 17.4621Z" fill="#42AF54"/>
<path d="M87.7883 21.3852C88.0612 21.5508 88.3341 21.7178 88.6055 21.8864C88.8463 22.036 89.1131 22.1069 89.3769 22.1069C89.8655 22.1069 90.3442 21.862 90.6217 21.415C91.0478 20.7275 90.8367 19.825 90.1506 19.3977C89.8686 19.2223 89.5865 19.0491 89.3037 18.8782C88.6116 18.4593 87.7113 18.6813 87.2936 19.3741C86.8751 20.0661 87.0969 20.9671 87.7883 21.3852Z" fill="#42AF54"/>
<path d="M74.9544 12.0444C74.1936 11.7736 73.3566 12.1718 73.0852 12.9348C72.8146 13.6969 73.2125 14.5346 73.9748 14.8055C74.2752 14.9123 74.5763 15.0214 74.8758 15.1328C75.6336 15.4128 76.4759 15.0267 76.7564 14.2669C77.0377 13.5085 76.6504 12.6654 75.892 12.3847C75.5802 12.2687 75.2677 12.1558 74.9544 12.0444Z" fill="#42AF54"/>
<path d="M94.1534 25.6614C94.4095 25.8513 94.6656 26.0436 94.921 26.2374C95.1855 26.438 95.4957 26.5349 95.8045 26.5349C96.2466 26.5349 96.6834 26.3358 96.9715 25.9559C97.4602 25.3112 97.3344 24.3926 96.6902 23.9035C96.4265 23.7029 96.1612 23.5038 95.8959 23.3069C95.2472 22.8263 94.3294 22.9621 93.8484 23.6129C93.3674 24.2621 93.5039 25.1799 94.1534 25.6614Z" fill="#42AF54"/>
<path d="M8.54544 24.629C8.8069 24.4436 9.06837 24.2605 9.33136 24.0789C9.99607 23.6181 10.1623 22.7056 9.70183 22.0404C9.24217 21.3751 8.33047 21.2088 7.66576 21.6688C7.39362 21.8565 7.12301 22.0472 6.8524 22.2387C6.19302 22.7064 6.03675 23.6212 6.50479 24.2811C6.97207 24.9411 7.88606 25.0967 8.54544 24.629Z" fill="#42AF54"/>
<path d="M21.5272 13.9343C21.2246 14.0655 20.922 14.199 20.6201 14.3341C19.883 14.6652 19.5529 15.5327 19.8838 16.2704C20.2153 17.0089 21.0813 17.3385 21.8184 17.0082C22.1089 16.8777 22.4001 16.7488 22.6913 16.6229C23.433 16.3009 23.7737 15.4388 23.4528 14.6957C23.1311 13.9534 22.2682 13.6123 21.5272 13.9343Z" fill="#42AF54"/>
<path d="M36.6883 9.18222C36.3628 9.2463 36.0389 9.31344 35.7141 9.38211C34.9236 9.55072 34.4182 10.3282 34.5867 11.1201C34.7544 11.9105 35.5312 12.4163 36.3232 12.2485C36.6342 12.1821 36.946 12.118 37.2578 12.0562C38.0505 11.899 38.5659 11.1277 38.4088 10.3343C38.2518 9.5408 37.4811 9.02429 36.6883 9.18222Z" fill="#42AF54"/>
<path d="M44.5719 8.06516C44.2418 8.09415 43.911 8.12467 43.5809 8.15671C42.7767 8.23682 42.189 8.95399 42.269 9.75889C42.3483 10.563 43.0641 11.152 43.8698 11.0727C44.1862 11.0414 44.5033 11.0116 44.8204 10.9849C45.6261 10.9155 46.223 10.2067 46.1544 9.40031C46.0858 8.59388 45.3738 7.99497 44.5719 8.06516Z" fill="#42AF54"/>
<path d="M81.0451 17.7439C81.3333 17.8813 81.6214 18.0209 81.9088 18.1628C82.633 18.5198 83.5111 18.2223 83.8686 17.496C84.2254 16.7697 83.9273 15.8915 83.2016 15.5345C82.9028 15.3872 82.604 15.2415 82.3037 15.0988C81.5741 14.7509 80.7006 15.0607 80.353 15.7908C80.0054 16.5217 80.3148 17.396 81.0451 17.7439Z" fill="#42AF54"/>
<path d="M51.537 7.81254C50.7251 7.80644 50.065 8.45036 50.0551 9.25908C50.0444 10.0678 50.6916 10.7323 51.5004 10.7422C51.8182 10.7468 52.1369 10.7529 52.4555 10.7613C52.4685 10.7613 52.4814 10.7621 52.4952 10.7621C53.2849 10.7621 53.9359 10.1311 53.9572 9.33613C53.9786 8.52665 53.3413 7.85374 52.5333 7.83238C52.2009 7.82322 51.8693 7.81712 51.537 7.81254Z" fill="#42AF54"/>
<path d="M67.3209 9.78003C66.5334 9.59235 65.7452 10.0783 65.5577 10.8657C65.3702 11.6523 65.8558 12.4427 66.6417 12.6304C66.9519 12.7044 67.2614 12.7807 67.5709 12.8585C68.3545 13.0569 69.1511 12.5823 69.3493 11.798C69.5475 11.0137 69.0734 10.2164 68.289 10.0181C67.9665 9.93643 67.6433 9.85709 67.3209 9.78003Z" fill="#42AF54"/>
<path d="M59.4838 8.35792C58.6819 8.25873 57.9509 8.82712 57.8502 9.6305C57.7504 10.4331 58.319 11.1655 59.1217 11.2655C59.4373 11.3052 59.7537 11.3471 60.0693 11.3906C60.8681 11.502 61.6098 10.9443 61.7204 10.1409C61.8317 9.33982 61.2729 8.59977 60.4725 8.48838C60.1432 8.4426 59.8131 8.39911 59.4838 8.35792Z" fill="#42AF54"/>
<path d="M28.9786 11.1545C28.663 11.2537 28.3482 11.3544 28.0326 11.4581C27.265 11.7107 26.8472 12.5384 27.0996 13.3075C27.3519 14.0758 28.1782 14.4946 28.9473 14.2421C29.2492 14.1421 29.5518 14.0452 29.8552 13.9499C30.6259 13.708 31.0551 12.8856 30.8134 12.1135C30.571 11.3414 29.7516 10.9111 28.9786 11.1545Z" fill="#42AF54"/>
<path d="M3.07333 28.8576L3.22578 28.7302C3.84705 28.2129 3.93166 27.289 3.41483 26.6665C2.89724 26.0447 1.97411 25.96 1.35284 26.478L1.19581 26.6092C0.575308 27.128 0.492981 28.052 1.01134 28.6722C1.52969 29.294 2.45359 29.3757 3.07333 28.8576Z" fill="#42AF54"/>
<path d="M56.7426 49.8055C48.5571 47.1116 40.1819 53.2654 40.1819 61.8104C40.1819 68.7783 45.8457 74.4469 52.8077 74.4469C61.6533 74.4469 67.7737 65.5289 64.5926 57.277C66.8269 52.3209 61.526 47.3481 56.7426 49.8055ZM62.1716 54.9218C62.1716 56.466 60.9154 57.7401 59.355 57.7401C57.8029 57.7401 56.5391 56.4759 56.5391 54.9218C56.5391 53.3723 57.809 52.1035 59.355 52.1035C60.9085 52.1035 62.1716 53.3677 62.1716 54.9218ZM52.8077 71.5173C47.4602 71.5173 43.1098 67.1624 43.1098 61.8104C43.1098 55.8762 48.4131 51.3085 54.2896 52.2172C53.849 53.0411 53.6119 53.9818 53.6119 54.9218C53.6119 58.091 56.1884 60.6705 59.3557 60.6705C60.3703 60.6705 61.4177 60.3921 62.3096 59.8557C63.5468 65.8837 58.9205 71.5173 52.8077 71.5173Z" fill="#42AF54"/>
<path d="M8.7833 41.5267C10.5823 43.8583 13.9554 44.3084 16.3017 42.5353C25.0658 35.9145 56.5521 15.8645 93.786 35.8321C94.8868 36.4227 96.1842 36.0954 96.871 35.0539C97.5563 34.0133 97.3467 32.6927 96.3725 31.9122C73.7691 13.8236 42.3141 10.2744 7.87922 30.3542C5.05952 31.9991 4.32467 35.7459 6.31348 38.3247L8.7833 41.5267ZM9.35349 32.8864C35.4786 17.6505 63.9699 13.7763 89.274 30.3764C74.5794 23.9234 59.4007 22.5181 44.0658 26.2039C30.0214 29.5799 19.5377 36.4196 14.5386 40.1969C13.4645 41.0079 11.9224 40.8012 11.1007 39.7361L8.63084 36.5341C7.69856 35.3256 8.08809 33.6242 9.35349 32.8864Z" fill="#42AF54"/>
</g>
<defs>
<clipPath id="clip0">
<rect width="99.9146" height="100" fill="white" transform="translate(0.670288)"/>
</clipPath>
</defs>
</svg>
