<svg width="56" height="56" viewBox="0 0 56 56" fill="none" xmlns="http://www.w3.org/2000/svg">
<g clip-path="url(#clip0)">
<path d="M55.771 23.883L46.398 11.7074C46.0511 11.2571 45.4183 11.146 44.9385 11.451L38.887 15.2997H30.9945C30.8924 15.2997 30.7907 15.3215 30.6925 15.3501L24.573 17.1116L18.2233 15.3749L12.0534 11.451C11.5817 11.1511 10.9605 11.2528 10.6097 11.6877L0.242617 24.529C-0.129942 24.9905 -0.0684182 25.6642 0.381045 26.0509L5.81476 30.7271L10.6896 37.2964C9.26392 38.8153 9.29169 41.2109 10.7751 42.6947C11.4326 43.3518 12.2687 43.7231 13.1288 43.8094C13.0989 44.0042 13.0835 44.202 13.0835 44.4028C13.0835 45.4393 13.4872 46.4139 14.22 47.1466C14.9531 47.8797 15.9277 48.2835 16.9642 48.2835C16.9783 48.2835 16.9919 48.2826 17.0056 48.2822C17.0052 48.3087 17.0039 48.3348 17.0039 48.3613C17.0039 49.3978 17.4077 50.3723 18.1404 51.1055C18.8735 51.8382 19.8481 52.2419 20.8846 52.2419C21.0892 52.2419 21.2918 52.2253 21.4904 52.1945C21.5746 53.0575 21.9467 53.8975 22.6064 54.5572C23.3626 55.3138 24.3564 55.6919 25.3502 55.6919C26.3439 55.6919 27.3377 55.3138 28.0944 54.5572L28.6878 53.9637L28.9369 54.1645C29.6871 54.8913 30.6613 55.2544 31.6354 55.2544C32.6292 55.2544 33.6229 54.8763 34.3792 54.1197C35.1512 53.3476 35.5293 52.3287 35.5135 51.3148C36.5269 51.3302 37.5463 50.9525 38.3184 50.1809C39.0896 49.4093 39.4677 48.3912 39.4527 47.3777C40.5084 47.3944 41.5099 46.9889 42.2572 46.2417C43.0292 45.4697 43.4073 44.4507 43.3915 43.4368C44.4058 43.4522 45.4243 43.0745 46.1964 42.3025C47.514 40.9848 47.6836 38.9482 46.7065 37.4447L50.2659 29.9901L55.6171 25.3852C56.0593 25.0046 56.1268 24.3449 55.771 23.883ZM11.7022 13.8304L16.1387 16.6515L6.48767 28.4093L2.62024 25.0806L11.7022 13.8304ZM12.3281 38.7593L13.6671 37.4203C13.7077 37.3797 13.7504 37.3413 13.794 37.3054C14.0559 37.0918 14.3729 36.9645 14.7087 36.9341C14.7181 36.9333 14.728 36.9333 14.7374 36.9328C14.7852 36.929 14.8331 36.9264 14.8814 36.9269C15.3402 36.9333 15.7666 37.1208 16.0828 37.4545C16.7031 38.1103 16.6698 39.1819 16.0084 39.8432L14.71 41.1416C14.0534 41.7983 12.9848 41.7983 12.3281 41.1416C11.6715 40.4845 11.6715 39.416 12.3281 38.7593ZM15.773 45.5936C15.4547 45.2757 15.2795 44.8527 15.2795 44.4028C15.2795 43.9529 15.4547 43.53 15.773 43.2117L18.3694 40.6153C18.8667 40.118 19.6486 39.9817 20.2843 40.2846C20.9397 40.5969 21.3084 41.3083 21.2123 42.0239C21.161 42.4059 20.9833 42.7656 20.7107 43.0386L18.1553 45.5936C17.837 45.9118 17.4141 46.087 16.9642 46.087C16.5143 46.087 16.0913 45.9118 15.773 45.5936ZM19.6934 49.552C19.3751 49.2341 19.2 48.8111 19.2 48.3613C19.2 47.9114 19.3751 47.4884 19.6934 47.1701L22.2894 44.5737C22.8213 44.0422 23.6745 43.9277 24.3256 44.3067C24.9204 44.6528 25.2318 45.3321 25.1297 46.0088C25.0737 46.381 24.8969 46.7309 24.6307 46.9971L22.0758 49.552C21.7575 49.8703 21.3345 50.0455 20.8846 50.0455C20.4347 50.0455 20.0117 49.8703 19.6934 49.552ZM24.159 53.0041C23.5023 52.3475 23.5023 51.2789 24.159 50.6222L25.498 49.2832C25.5386 49.2427 25.5809 49.2046 25.6245 49.1687C25.6257 49.1679 25.6266 49.167 25.6274 49.1662C25.8453 48.9893 26.1013 48.871 26.3743 48.8193C26.3807 48.8184 26.3871 48.8176 26.3935 48.8167C26.4405 48.8082 26.4883 48.8013 26.5362 48.797C26.5554 48.7953 26.5747 48.7953 26.5943 48.7941C26.6336 48.7919 26.6725 48.7894 26.7122 48.7898C27.1707 48.7962 27.5975 48.9833 27.9136 49.3174C27.9525 49.3584 27.9888 49.4012 28.0222 49.4452C28.5272 50.1053 28.4592 51.0858 27.8325 51.713L26.5409 53.0046C25.8842 53.6612 24.8157 53.6608 24.159 53.0041ZM44.6433 40.7494C43.9866 41.4065 42.9181 41.4061 42.2614 40.7494C42.2375 40.7255 42.2123 40.7033 42.1867 40.6824L35.126 33.5473C34.6992 33.1163 34.004 33.1128 33.5729 33.5397C33.1419 33.966 33.1384 34.6612 33.5648 35.0923L40.702 42.3038C40.7028 42.3046 40.7037 42.3055 40.7045 42.3063C41.3612 42.963 41.3612 44.032 40.7045 44.6886C40.3862 45.0069 39.9633 45.1821 39.5134 45.1821C39.0631 45.1821 38.6401 45.0069 38.3222 44.6886L33.5477 39.8646C33.1213 39.4335 32.4262 39.4301 31.9951 39.8565C31.564 40.2833 31.5606 40.9784 31.987 41.4095L36.6884 46.1597C36.7124 46.1896 36.738 46.2182 36.7653 46.2455C37.422 46.9022 37.422 47.9712 36.7653 48.6279C36.1082 49.2845 35.0393 49.2841 34.3826 48.6274L31.7768 45.9943C31.35 45.5632 30.6549 45.5594 30.2238 45.9862C29.7927 46.4126 29.7893 47.1077 30.2156 47.5388L32.7488 50.098C32.7727 50.1279 32.7983 50.157 32.8261 50.1843C33.4828 50.841 33.4828 51.91 32.8261 52.5666C32.1694 53.2237 31.1009 53.2233 30.4442 52.5666C30.3686 52.491 30.2797 52.4329 30.1951 52.368C30.1234 52.3133 30.1046 52.2753 30.1404 52.1881C30.1768 52.0997 30.231 52.0198 30.2673 51.9309C30.3075 51.8318 30.34 51.7297 30.3716 51.6271C30.5399 51.0845 30.5895 50.5009 30.5139 49.9378C30.3686 48.8573 29.7743 47.8823 28.8737 47.2654C28.387 46.9325 27.8239 46.7142 27.2403 46.6322C27.5231 45.3846 27.1835 44.032 26.2999 43.0984C25.5728 42.3302 24.5905 41.8992 23.5339 41.8846C23.4955 41.8842 23.457 41.8842 23.4182 41.8846C23.4417 40.8763 23.0751 39.8744 22.38 39.14C21.6524 38.3718 20.6701 37.9407 19.614 37.9262C19.2999 37.9219 18.9829 37.9552 18.677 38.0257C18.5463 37.1161 18.0878 36.2745 17.3936 35.6725C16.7036 35.0752 15.8358 34.7436 14.9117 34.7308C13.9388 34.7167 12.9831 35.0756 12.2606 35.728L8.01593 30.0085L18.1707 17.6371L21.4071 18.5224L17.1804 25.9808C16.6694 26.8827 16.5403 27.9295 16.8168 28.9284C17.0932 29.9277 17.7418 30.7591 18.6437 31.2701C18.7001 31.3022 18.7569 31.3325 18.8146 31.3616C18.8189 31.3637 18.8231 31.3658 18.8278 31.368C18.9795 31.4436 19.1354 31.5085 19.2935 31.5632C20.0297 31.8183 20.8248 31.8461 21.5917 31.6341C22.5906 31.3577 23.422 30.7087 23.933 29.8072L26.6798 24.9601L31.5841 25.3079L44.6437 38.3671C45.3 39.0242 45.3 40.0928 44.6433 40.7494ZM45.0983 35.716L32.8471 23.4652C32.824 23.4417 32.7996 23.4195 32.7744 23.3985C32.598 23.2516 32.3792 23.1627 32.1485 23.1465L26.1436 22.7205C25.7283 22.6919 25.3156 22.9128 25.1105 23.2746L22.0223 28.7246C21.8006 29.1159 21.4396 29.3975 21.0059 29.5176C20.5727 29.6376 20.1181 29.5812 19.7263 29.3595C19.335 29.1377 19.0534 28.7767 18.9334 28.3431C18.8133 27.9094 18.8693 27.4548 19.0914 27.0635L23.2139 19.7879L24.8845 19.3072C24.8956 19.3038 24.9063 19.2995 24.9174 19.2961L31.1522 17.4957H38.6854L48.0899 29.4509L45.0983 35.716ZM49.5285 27.7274L40.8314 16.6656L45.2701 13.8428L53.3967 24.3987L49.5285 27.7274Z" fill="#42AF54"/>
<path d="M33.9261 13.2382C34.2073 13.2382 34.4884 13.131 34.7029 12.9165L42.2036 5.41577C42.6326 4.98682 42.6326 4.29169 42.2036 3.86273C41.7747 3.43378 41.0795 3.43378 40.6506 3.86273L33.1498 11.3635C32.7209 11.7924 32.7209 12.4876 33.1498 12.9165C33.3643 13.131 33.6454 13.2382 33.9261 13.2382Z" fill="#42AF54"/>
<path d="M21.2961 12.9165C21.5106 13.131 21.7917 13.2382 22.0728 13.2382C22.3535 13.2382 22.6347 13.131 22.8491 12.9165C23.2781 12.4876 23.2781 11.7924 22.8491 11.3635L15.3484 3.86273C14.9194 3.43378 14.2243 3.43378 13.7953 3.86273C13.3664 4.29169 13.3664 4.98682 13.7953 5.41577L21.2961 12.9165Z" fill="#42AF54"/>
<path d="M28.0004 13.238C28.6066 13.238 29.0984 12.7462 29.0984 12.14V5.9325C29.0984 5.32623 28.6066 4.83447 28.0004 4.83447C27.3941 4.83447 26.9023 5.32623 26.9023 5.9325V12.14C26.9023 12.7462 27.3941 13.238 28.0004 13.238Z" fill="#42AF54"/>
<path d="M26.9871 1.95251C27.1614 2.37505 27.5959 2.65233 28.0544 2.62841C28.5072 2.60491 28.905 2.299 29.0451 1.86791C29.1857 1.4334 29.0327 0.938223 28.6687 0.661367C28.2975 0.37853 27.7796 0.362722 27.3913 0.619497C26.958 0.905752 26.7901 1.4757 26.9871 1.95251Z" fill="#42AF54"/>
</g>
<defs>
<clipPath id="clip0">
<rect width="56" height="56" fill="white"/>
</clipPath>
</defs>
</svg>
