<svg width="30" height="30" viewBox="0 0 30 30" fill="none" xmlns="http://www.w3.org/2000/svg">
<path d="M20.0218 2.49988H7.49589C4.03694 2.49988 1.23291 5.2981 1.23291 8.74988V21.2499C1.23291 24.7017 4.03694 27.4999 7.49589 27.4999H20.0218C23.4808 27.4999 26.2848 24.7017 26.2848 21.2499V8.74988C26.2848 5.2981 23.4808 2.49988 20.0218 2.49988Z" stroke="#42AF54" stroke-width="2" stroke-linecap="round" stroke-linejoin="round"/>
<path d="M18.7693 14.2124C18.9239 15.2527 18.7458 16.3152 18.2605 17.2487C17.7751 18.1822 17.0071 18.9392 16.0657 19.412C15.1244 19.8848 14.0576 20.0494 13.0171 19.8823C11.9766 19.7152 11.0154 19.225 10.2702 18.4813C9.52505 17.7377 9.0338 16.7785 8.86637 15.7402C8.69895 14.7018 8.86387 13.6373 9.33767 12.6979C9.81148 11.7585 10.5701 10.9921 11.5055 10.5077C12.4409 10.0233 13.5056 9.84562 14.5481 9.99989C15.6114 10.1572 16.5959 10.6517 17.356 11.4103C18.1161 12.1688 18.6116 13.1512 18.7693 14.2124Z" stroke="#42AF54" stroke-width="2" stroke-linecap="round" stroke-linejoin="round"/>
<path d="M20.6484 8.12488H20.6618" stroke="#42AF54" stroke-width="2" stroke-linecap="round" stroke-linejoin="round"/>
</svg>
