<svg width="32" height="32" viewBox="0 0 32 32" fill="none" xmlns="http://www.w3.org/2000/svg">
<path d="M22.6665 2.66699H9.33317C5.65127 2.66699 2.6665 5.65176 2.6665 9.33366V22.667C2.6665 26.3489 5.65127 29.3337 9.33317 29.3337H22.6665C26.3484 29.3337 29.3332 26.3489 29.3332 22.667V9.33366C29.3332 5.65176 26.3484 2.66699 22.6665 2.66699Z" stroke="white" stroke-width="2" stroke-linecap="round" stroke-linejoin="round"/>
<path d="M21.3331 15.1604C21.4977 16.2701 21.3081 17.4034 20.7915 18.3991C20.2748 19.3948 19.4573 20.2023 18.4553 20.7066C17.4532 21.211 16.3177 21.3865 15.2102 21.2083C14.1026 21.0301 13.0795 20.5072 12.2862 19.714C11.493 18.9207 10.9701 17.8976 10.7919 16.79C10.6136 15.6825 10.7892 14.5469 11.2935 13.5449C11.7979 12.5429 12.6054 11.7254 13.6011 11.2087C14.5968 10.6921 15.7301 10.5025 16.8398 10.6671C17.9717 10.8349 19.0196 11.3624 19.8287 12.1715C20.6378 12.9806 21.1653 14.0285 21.3331 15.1604Z" stroke="white" stroke-width="2" stroke-linecap="round" stroke-linejoin="round"/>
<path d="M23.3335 8.66699H23.3468" stroke="white" stroke-width="2" stroke-linecap="round" stroke-linejoin="round"/>
</svg>
