<svg width="101" height="100" viewBox="0 0 101 100" fill="none" xmlns="http://www.w3.org/2000/svg">
<g clip-path="url(#clip0)">
<path d="M20.0633 63.8794C20.0648 69.429 20.0709 69.5648 20.0854 69.9142L20.0907 70.0653C20.651 87.3741 32.3765 98.4146 47.3745 99.9916C48.1795 100.076 48.9014 99.4911 48.9852 98.6854C49.0698 97.879 48.4859 97.1565 47.6802 97.0718C36.6728 95.9152 23.6094 88.1225 23.0217 69.9707L23.0148 69.7937C22.9866 69.107 22.995 53.3745 22.995 52.346C22.995 39.9444 40.1861 27.565 50.9024 21.3478C61.6041 27.5513 78.809 39.9483 78.809 52.346C78.809 68.7813 78.8082 69.3306 78.7884 69.7967L78.7823 69.9707C78.1961 88.0699 65.1808 95.8763 54.2122 97.0619C53.4073 97.1489 52.8249 97.8729 52.9125 98.6786C52.9994 99.4842 53.7175 100.067 54.5278 99.9801C69.3284 98.3803 81.1492 87.4931 81.7133 70.0661L81.7194 69.9173C81.7339 69.5579 81.7392 69.4252 81.7407 63.8534C82.2591 62.4924 82.7188 61.1473 83.1205 59.8175C93.4358 44.1444 91.761 25.7782 78.7251 11.8385C78.1725 11.2472 77.2448 11.216 76.6525 11.7699C76.0617 12.3237 76.0304 13.2522 76.5839 13.8443C86.175 24.1005 89.1243 36.9392 85.1367 49.0509C86.6628 25.2739 66.0422 10.82 43.1027 4.41817C53.126 1.47856 63.3079 2.70613 71.6663 9.30479C72.3021 9.80681 73.2245 9.69771 73.7253 9.06142C74.2269 8.42512 74.1179 7.50197 73.4821 6.99995C66.617 1.58079 58.2135 -0.765244 49.1834 0.217422C43.5463 0.830825 39.3408 2.53981 37.9625 3.15855C37.8314 3.13185 37.2117 3.00597 37.0783 2.98918C31.7369 2.32008 28.7495 6.22481 27.9011 7.54774C25.9283 8.61357 17.4578 13.7245 13.7607 24.6628C10.3715 34.6908 12.0265 46.479 18.6759 59.7023C19.2621 61.8141 19.8231 63.285 20.0633 63.8794ZM47.825 19.7563C36.6979 26.4534 20.7623 38.4865 20.0854 51.4877C18.3618 35.762 25.121 23.3787 41.0094 16.3437L47.825 19.7563ZM36.6758 5.89751C54.5682 9.2079 79.0674 21.1937 81.9595 41.9746C82.468 45.6184 82.3315 49.3187 81.7415 52.9007C81.7385 42.1951 72.697 33.2123 64.2035 26.6929C58.8546 22.5876 52.6602 18.8949 51.558 18.3433L31.1431 8.12147C32.1501 7.00453 33.9941 5.57783 36.6758 5.89751ZM16.5224 25.6531C19.6623 16.3071 26.8385 11.5562 28.9721 10.3165C30.6225 11.1427 35.9882 13.829 37.6683 14.6705C24.1743 21.3699 16.7039 32.476 16.8937 47.5044C14.4818 39.4287 14.353 32.1098 16.5224 25.6531Z" fill="#42AF54"/>
<path d="M41.8266 59.9569C42.2168 60.6672 43.1095 60.9251 43.8184 60.5337C44.5273 60.143 44.785 59.2504 44.3947 58.5401L44.2567 58.2906C44.5891 58.1113 44.9245 57.9168 45.2645 57.7009C45.949 57.2668 46.1518 56.3596 45.718 55.6753C45.2835 54.9901 44.3779 54.788 43.6942 55.2221C39.5885 57.8275 35.607 57.2393 32.5762 54.3668C32.2316 54.0418 32.0449 53.8366 31.8993 53.6519C31.4023 53.0149 30.4837 52.8989 29.8449 53.3941C29.2153 53.8824 29.0933 54.7819 29.5613 55.4212L29.3098 55.6867C28.7533 56.2757 28.7792 57.2042 29.3677 57.7619C29.9562 58.3189 30.8839 58.2929 31.4404 57.7039L31.6843 57.446C31.9984 57.6833 32.3444 57.9236 32.7225 58.1548L32.5022 58.6164C32.038 59.5907 32.75 60.7168 33.8248 60.7168C34.3721 60.7168 34.8974 60.4085 35.1489 59.8814L35.3936 59.3679C35.8921 59.5205 36.428 59.6456 36.9975 59.728V60.1072C36.9975 60.9174 37.6538 61.5751 38.4633 61.5751C39.2736 61.5751 39.93 60.9174 39.93 60.1072V59.7417C40.4445 59.6731 40.9774 59.5647 41.5247 59.4099L41.8266 59.9569Z" fill="#42AF54"/>
<path d="M71.9621 53.401C71.3256 52.9028 70.4055 53.0165 69.9054 53.6512C69.5967 54.0426 69.3246 54.2555 69.1477 54.4508C67.5461 55.9393 63.5319 58.663 58.1098 55.2221C57.426 54.788 56.5197 54.9902 56.0859 55.6753C55.6522 56.3597 55.8549 57.2668 56.5387 57.7009C56.8795 57.9168 57.2149 58.1114 57.5472 58.2899L57.4092 58.5401C57.0182 59.2497 57.2766 60.1431 57.9855 60.5337C58.2096 60.6581 58.4528 60.7168 58.6922 60.7168C59.209 60.7168 59.7106 60.4422 59.9774 59.9569L60.2785 59.4099C60.8266 59.5648 61.3587 59.6731 61.874 59.7418V60.1072C61.874 60.9175 62.5303 61.5751 63.3406 61.5751C64.1502 61.5751 64.8065 60.9175 64.8065 60.1072V59.728C65.3759 59.6456 65.9118 59.5205 66.4103 59.3679L66.655 59.8814C67.0034 60.6123 67.8785 60.9228 68.6095 60.5734C69.3406 60.224 69.6501 59.3481 69.3017 58.6164L69.0814 58.1549C69.4595 57.9237 69.8056 57.6834 70.1196 57.4461L70.3628 57.704C70.9193 58.293 71.847 58.3189 72.4355 57.7612C73.0239 57.2042 73.0499 56.2757 72.4934 55.6868L72.2418 55.4212C72.7091 54.7842 72.5879 53.89 71.9621 53.401Z" fill="#42AF54"/>
<path d="M42.4264 83.419C47.8036 87.7014 53.9918 87.7075 59.3774 83.419C60.857 82.2395 60.0223 79.8477 58.1356 79.8477H43.6682C41.7777 79.8477 40.9499 82.2433 42.4264 83.419ZM54.8997 82.7827C52.2744 83.9942 49.5294 83.9942 46.9041 82.7827H54.8997Z" fill="#42AF54"/>
<path d="M54.6894 67.0029C53.8791 67.0029 53.2228 67.6598 53.2228 68.4701C53.2228 69.751 52.1823 70.7932 50.9024 70.7932C49.6225 70.7932 48.5812 69.751 48.5812 68.4701C48.5812 67.6598 47.9249 67.0029 47.1146 67.0029C46.305 67.0029 45.6487 67.6598 45.6487 68.4701C45.6487 71.3692 48.0057 73.7282 50.9024 73.7282C53.7991 73.7282 56.1561 71.3692 56.1561 68.4701C56.1561 67.6598 55.499 67.0029 54.6894 67.0029Z" fill="#42AF54"/>
<path d="M75.3092 72.8493C75.3465 72.5151 75.3801 72.1733 75.4083 71.8338C75.4746 71.0258 74.8747 70.3171 74.0682 70.2499C73.2617 70.1851 72.552 70.784 72.4857 71.5912C72.4597 71.9032 72.4293 72.2168 72.395 72.5235C72.2981 73.3917 72.9766 74.1539 73.854 74.1539C74.5911 74.1539 75.2261 73.5992 75.3092 72.8493Z" fill="#42AF54"/>
<path d="M72.8433 77.9677C72.0779 77.7022 71.2425 78.1073 70.9772 78.8725C70.8766 79.1617 70.7691 79.4539 70.6578 79.7423C70.2858 80.702 70.9962 81.7404 72.0246 81.7404C72.6131 81.7404 73.1672 81.3841 73.3921 80.8027C73.5164 80.4823 73.636 80.1573 73.7473 79.8353C74.0134 79.0701 73.6086 78.2339 72.8433 77.9677Z" fill="#42AF54"/>
<path d="M67.5925 85.4262C67.4142 85.6757 67.2289 85.9244 67.0414 86.1663C66.5459 86.8071 66.6633 87.7288 67.3036 88.2247C67.9447 88.7213 68.8655 88.6031 69.361 87.963C69.5691 87.6929 69.7765 87.4152 69.9754 87.1367C70.4481 86.4783 70.2971 85.5612 69.6385 85.089C68.9799 84.6167 68.0644 84.7678 67.5925 85.4262Z" fill="#42AF54"/>
<path d="M62.4776 90.7421C62.2359 90.9313 61.9874 91.119 61.7374 91.3006C61.0834 91.7782 60.9393 92.696 61.4157 93.3514C61.8929 94.0067 62.8099 94.1502 63.4648 93.6733C63.7415 93.4719 64.0174 93.2636 64.285 93.0538C64.923 92.5541 65.0351 91.6317 64.5358 90.9931C64.0372 90.3553 63.1149 90.2424 62.4776 90.7421Z" fill="#42AF54"/>
<path d="M75.5402 64.7995C75.5455 63.9893 74.893 63.3278 74.0835 63.3232C74.0804 63.3232 74.0774 63.3232 74.0736 63.3232C73.2686 63.3232 72.613 63.974 72.6077 64.7812V64.8812C72.6077 65.6914 73.264 66.3491 74.0736 66.3491C74.8839 66.3491 75.5402 65.6914 75.5402 64.8812V64.7995Z" fill="#42AF54"/>
<path d="M26.6097 73.7692C26.721 74.5687 27.4589 75.1318 28.2647 75.0204C29.0666 74.9082 29.6261 74.1667 29.5141 73.3641C29.4721 73.0589 29.4333 72.7476 29.3997 72.4371C29.3121 71.6314 28.5902 71.0501 27.7829 71.137C26.9779 71.2248 26.3963 71.9488 26.484 72.7545C26.5206 73.094 26.5632 73.4358 26.6097 73.7692Z" fill="#42AF54"/>
<path d="M32.6554 85.8323C32.0136 86.3259 31.8931 87.2475 32.3863 87.8899C32.5952 88.1615 32.8125 88.4331 33.0305 88.6971C33.5473 89.322 34.472 89.4082 35.0955 88.8909C35.7191 88.3736 35.8052 87.4489 35.2891 86.8249C35.0932 86.5883 34.8988 86.3442 34.7113 86.1008C34.2174 85.4584 33.2973 85.3379 32.6554 85.8323Z" fill="#42AF54"/>
<path d="M27.7318 67.2356C28.5414 67.2356 29.1977 66.5779 29.197 65.7669L29.1962 64.7896C29.1962 63.9794 28.5399 63.3232 27.7303 63.3232C27.7296 63.3232 27.7296 63.3232 27.7296 63.3232C26.9192 63.3232 26.2629 63.9809 26.2637 64.7911L26.2644 65.7692C26.2652 66.5795 26.9215 67.2356 27.7303 67.2356H27.7318Z" fill="#42AF54"/>
<path d="M28.7625 81.6679C29.0788 82.4132 29.9387 82.7619 30.685 82.4453C31.4305 82.1287 31.7781 81.2673 31.4617 80.5212C31.342 80.2381 31.2254 79.949 31.1156 79.6621C30.826 78.9053 29.9791 78.5268 29.2214 78.8167C28.4652 79.1067 28.0871 79.9558 28.3775 80.7127C28.4995 81.0316 28.6291 81.3535 28.7625 81.6679Z" fill="#42AF54"/>
<path d="M39.9979 91.251C39.3438 90.7734 38.4268 90.9176 37.9496 91.5722C37.4724 92.2268 37.6157 93.1454 38.2705 93.623L38.3338 93.6695C38.9871 94.1494 39.9041 94.0098 40.3836 93.3567C40.8638 92.7037 40.7236 91.7851 40.0711 91.3044L39.9979 91.251Z" fill="#42AF54"/>
</g>
<defs>
<clipPath id="clip0">
<rect width="99.9146" height="100" fill="white" transform="translate(0.92749)"/>
</clipPath>
</defs>
</svg>
