<svg width="101" height="100" viewBox="0 0 101 100" fill="none" xmlns="http://www.w3.org/2000/svg">
<path d="M66.0159 74.4792C66.0372 74.1549 66.0586 73.8284 66.0799 73.5011C66.1317 72.6939 65.5196 71.9973 64.7131 71.9454C63.9028 71.8936 63.2107 72.5062 63.1588 73.3134C63.1375 73.6384 63.1169 73.9619 63.0948 74.2846C63.0391 75.1284 63.7069 75.8471 64.5569 75.8471C65.3207 75.8464 65.964 75.2536 66.0159 74.4792Z" fill="#42AF54"/>
<path d="M66.4756 65.6577C66.5054 64.8497 65.875 64.1699 65.067 64.1402C64.2513 64.1104 63.5805 64.7414 63.5508 65.5501C63.5386 65.8751 63.5257 66.1978 63.5127 66.5205C63.4792 67.3491 64.1408 68.0449 64.9763 68.0449C65.7576 68.0449 66.4055 67.4277 66.4375 66.6396C66.4513 66.3138 66.4634 65.9865 66.4756 65.6577Z" fill="#42AF54"/>
<path d="M61.7833 88.8051C61.7467 89.1309 61.7093 89.4529 61.6712 89.771C61.5698 90.6393 62.246 91.4068 63.1272 91.4068C63.8589 91.4068 64.4916 90.8582 64.5785 90.1128C64.6167 89.7916 64.654 89.4666 64.6914 89.1378C64.7836 88.3344 64.2065 87.6081 63.4039 87.5165C62.6035 87.4242 61.8747 88.001 61.7833 88.8051Z" fill="#42AF54"/>
<path d="M65.3945 82.3051C65.4242 81.9817 65.4539 81.6566 65.4829 81.3286C65.5546 80.5229 64.96 79.8111 64.155 79.7394C63.3477 79.6669 62.6388 80.262 62.5672 81.0677C62.5382 81.3934 62.5085 81.7162 62.4795 82.0374C62.4002 82.8934 63.0733 83.6365 63.9385 83.6365C64.6863 83.6365 65.3251 83.065 65.3945 82.3051Z" fill="#42AF54"/>
<path d="M35.2459 80.8226C35.287 81.6046 35.9334 82.2104 36.7064 82.2104C36.7323 82.2104 36.7582 82.2096 36.7842 82.2088C37.5914 82.1661 38.2119 81.4764 38.1692 80.6685L38.1189 79.695C38.0778 78.887 37.3909 78.2652 36.5822 78.3072C35.7749 78.3484 35.1544 79.0373 35.1955 79.8453L35.2459 80.8226Z" fill="#42AF54"/>
<path d="M35.6874 88.6364C35.7369 89.4482 36.4367 90.0593 37.2379 90.009C38.0444 89.9601 38.6588 89.2651 38.6092 88.4579L38.5505 87.4844C38.5025 86.6764 37.8126 86.0615 37.0023 86.1096C36.1951 86.1584 35.5799 86.8519 35.6287 87.6599L35.6874 88.6364Z" fill="#42AF54"/>
<path d="M37.2197 72.4334C37.0634 72.0741 36.8805 71.7216 36.6762 71.3874C36.2539 70.6977 35.3529 70.481 34.663 70.903C33.9739 71.3256 33.7574 72.2274 34.1797 72.9171C34.3138 73.1368 34.4335 73.3672 34.5357 73.6022C34.775 74.1538 35.3132 74.4834 35.8788 74.4834C36.9308 74.4834 37.6397 73.3993 37.2197 72.4334Z" fill="#42AF54"/>
<path d="M43.6857 29.0453C44.5403 29.0453 44.9267 28.4365 45.4802 27.5736C45.917 26.8931 45.7203 25.9867 45.0403 25.5495C44.3604 25.1124 43.4548 25.3092 43.0172 25.9898C42.8655 26.227 42.7001 26.462 42.527 26.6863C41.7853 27.6507 42.4798 29.0453 43.6857 29.0453Z" fill="#42AF54"/>
<path d="M44.3028 14.2503C44.9203 13.7285 44.9988 12.8038 44.4766 12.1858C44.2418 11.9073 43.9918 11.635 43.7334 11.3771C43.1617 10.8041 42.2355 10.8041 41.6637 11.3763C41.092 11.9485 41.092 12.8763 41.663 13.4477C41.8635 13.6484 42.0579 13.8605 42.2408 14.0764C42.7622 14.6943 43.6854 14.7729 44.3028 14.2503Z" fill="#42AF54"/>
<path d="M37.7434 30.1008C37.4759 30.19 37.2007 30.2686 36.927 30.335C36.1411 30.525 35.6578 31.3161 35.8469 32.1027C36.0367 32.8878 36.8249 33.373 37.6131 33.1831C37.9683 33.0976 38.3243 32.9954 38.6712 32.8794C39.438 32.6231 39.8519 31.793 39.5958 31.0262C39.3397 30.2587 38.5103 29.8444 37.7434 30.1008Z" fill="#42AF54"/>
<path d="M46.0999 21.762C46.9079 21.7437 47.5482 21.0738 47.5299 20.2644C47.5215 19.8989 47.4979 19.5297 47.4598 19.1688C47.3744 18.3639 46.6556 17.7818 45.8498 17.8672C45.0456 17.9527 44.4632 18.6744 44.5486 19.4785C44.5783 19.7593 44.5966 20.0462 44.6035 20.3307C44.6218 21.128 45.2735 21.7628 46.0663 21.7628C46.077 21.7628 46.0884 21.7628 46.0999 21.762Z" fill="#42AF54"/>
<path d="M67.2709 33.9025C67.2046 33.6026 67.1436 33.299 67.0902 33.0007C66.9461 32.2042 66.1838 31.6754 65.3895 31.8189C64.5937 31.9631 64.0654 32.7245 64.2088 33.521C64.2697 33.8559 64.3376 34.1962 64.4115 34.5334C64.5853 35.3223 65.3651 35.8228 66.1556 35.6488C66.9454 35.4741 67.4447 34.6929 67.2709 33.9025Z" fill="#42AF54"/>
<path d="M70.2091 13.338C70.8326 13.8546 71.755 13.7661 72.2695 13.1435C72.4631 12.9093 72.6651 12.6743 72.8702 12.4446C73.4084 11.8412 73.3558 10.915 72.7528 10.3763C72.1491 9.83768 71.2237 9.89032 70.6855 10.4938C70.4568 10.7502 70.2312 11.0134 70.0139 11.2758C69.4994 11.8991 69.5863 12.8223 70.2091 13.338Z" fill="#42AF54"/>
<path d="M68.1344 16.6536C67.3988 16.3186 66.5313 16.6452 66.1966 17.3814C66.0549 17.6942 65.9177 18.0124 65.7881 18.329C65.3932 19.2933 66.1052 20.3493 67.1419 20.3493C67.7182 20.3493 68.2647 20.0067 68.4972 19.4398C68.6123 19.1568 68.7351 18.8722 68.8624 18.593C69.1962 17.8567 68.8707 16.9877 68.1344 16.6536Z" fill="#42AF54"/>
<path d="M63.9702 25.3022C63.929 25.6425 63.8932 25.9881 63.865 26.3291C63.7979 27.1355 64.3955 27.8435 65.2013 27.9114C65.2432 27.9145 65.2844 27.9168 65.3255 27.9168C66.0787 27.9168 66.7182 27.3385 66.7822 26.574C66.8082 26.2696 66.8394 25.9606 66.8768 25.657C66.9743 24.8536 66.4034 24.1234 65.6007 24.025C64.8003 23.9274 64.0685 24.4988 63.9702 25.3022Z" fill="#42AF54"/>
<path d="M67.4994 39.3221C66.7836 39.6982 66.5084 40.584 66.8842 41.3004C67.042 41.6018 67.2097 41.9069 67.3812 42.2052C67.7853 42.9079 68.681 43.1475 69.38 42.7446C70.0805 42.3411 70.3222 41.4454 69.9189 40.7442C69.7657 40.478 69.6163 40.2071 69.476 39.9386C69.0995 39.2222 68.2152 38.9467 67.4994 39.3221Z" fill="#42AF54"/>
<path d="M77.4905 2.72141C77.1581 1.14441 75.7471 0 74.1357 0H58.9181C58.1093 0 57.4545 0.656128 57.4545 1.46484C57.4545 2.27432 58.1093 2.92969 58.9181 2.92969H74.1357C74.3712 2.92969 74.5778 3.09677 74.6258 3.32642C75.8287 9.02863 81.1091 37.6251 68.4619 46.8925C50.6389 42.3645 36.3277 35.5209 30.0327 31.8214C30.2134 30.0323 30.9856 25.5821 34.2733 21.6499C36.7088 18.7378 38.2273 15.2946 38.6649 11.6936C38.985 9.05685 39.2595 6.2645 39.479 3.39432C39.4996 3.13416 39.7191 2.92969 39.9798 2.92969H52.088C52.8968 2.92969 53.5516 2.27432 53.5516 1.46484C53.5516 0.655365 52.8968 0 52.088 0H39.9798C38.1983 0 36.6966 1.39236 36.5602 3.17001C36.3437 5.99747 36.0739 8.74634 35.759 11.3396C35.3893 14.3776 34.0995 17.2928 32.0284 19.7701C27.9044 24.7017 27.197 30.2719 27.0758 32.045C22.7178 37.1811 20.6482 42.907 20.6482 48.6618C20.6482 56.176 23.987 63.0753 28.8016 68.7225C28.6149 71.7491 28.1689 84.8663 33.2923 97.8325C33.8121 99.1493 35.0646 100 36.4817 100H64.8144C66.201 100 67.442 99.1753 67.9756 97.8989C70.264 92.4255 71.7596 86.5875 72.4205 80.5466C72.5089 79.7424 71.9288 79.0192 71.1246 78.9314C70.3242 78.8429 69.5985 79.4235 69.5109 80.2277C68.8804 85.9894 67.455 91.5543 65.2748 96.7674C65.1978 96.9513 65.0172 97.0703 64.8144 97.0703H36.4817C36.2766 97.0703 36.0891 96.9437 36.0144 96.7552C31.2455 84.6863 31.555 72.1359 31.7181 69.0636C44.5406 61.1061 62.2196 58.4587 67.9543 57.782C68.5862 60.1234 69.9149 65.9554 69.8859 73.5458C69.8829 74.3546 70.5361 75.013 71.3442 75.016H71.3503C72.156 75.016 72.8108 74.3637 72.8138 73.5565C72.8466 64.7194 71.1566 58.2474 70.5849 56.3148C72.1095 53.0128 71.4242 50.3578 70.7191 48.8579C83.8129 38.4735 79.2491 11.0596 77.4905 2.72141ZM68.0465 54.808C68.0419 54.8134 68.0381 54.818 68.0343 54.8233C62.6716 55.4321 44.2227 58.046 30.6029 66.3109C22.3725 56.2904 20.8464 44.4534 28.8344 34.5139C35.4488 38.3522 49.9681 45.237 67.9062 49.7749C68.1791 50.251 68.5641 51.133 68.5664 52.3277V52.3399C68.5671 53.0571 68.4292 53.8864 68.0465 54.808Z" fill="#42AF54"/>
</svg>
