<svg width="101" height="100" viewBox="0 0 101 100" fill="none" xmlns="http://www.w3.org/2000/svg">
<g clip-path="url(#clip0)">
<path d="M98.6029 77.5095C92.9132 74.6973 82.4172 68.2589 76.049 56.7392C73.8849 52.8246 71.3068 49.9109 68.3781 48.0638C68.3347 47.6946 68.2379 47.3772 67.9467 47.0865L36.997 16.1104C37.0343 16.0722 37.0602 16.0463 37.0732 16.0341C38.321 14.7844 38.321 12.7519 37.0732 11.5022L35.8985 10.3265C34.6499 9.0768 32.6191 9.0768 31.3705 10.3265L27.9013 13.7986L22.3397 8.23222L22.7528 7.81871C24.0007 6.56901 24.0007 4.53654 22.7528 3.28684L21.5774 2.11115C20.3257 0.858402 18.301 0.859165 17.0501 2.11115L15.7908 3.37153C15.2191 3.94373 15.2191 4.87147 15.7908 5.44291C16.3625 6.01588 17.2895 6.01512 17.8604 5.44291L19.1197 4.18253C19.228 4.0742 19.4018 4.07649 19.5077 4.18253L20.6824 5.35899C20.7892 5.4658 20.7892 5.63975 20.6824 5.74656C19.8797 6.5507 18.266 8.16509 14.8433 11.5915H14.8425L13.395 13.0403C13.2882 13.1471 13.1137 13.1471 13.0077 13.0403L11.8323 11.8646C11.7248 11.757 11.7248 11.5846 11.8323 11.477L13.0268 10.2815C13.5977 9.71004 13.5977 8.78231 13.0268 8.2101C12.4543 7.63789 11.5281 7.63789 10.9564 8.2101L9.76188 9.40563C8.51096 10.6576 8.51096 12.684 9.76264 13.9367L10.9373 15.1124C12.186 16.3614 14.2167 16.3621 15.4646 15.1124L15.8785 14.6989L21.4402 20.2653L17.9702 23.7375C16.7185 24.9902 16.7193 27.0166 17.9702 28.2693L19.1457 29.445C20.3943 30.6947 22.425 30.6947 23.6729 29.445C23.6874 29.4305 23.7141 29.4046 23.7499 29.3687C26.5749 32.197 33.9867 39.6143 40.0583 45.6919C38.1633 45.7498 36.336 46.1473 34.5965 46.8889C30.7271 48.5369 27.3952 51.8511 24.6928 56.7392C18.3239 68.2589 7.82871 74.6973 2.13899 77.5095C-0.655566 78.8905 0.116633 83.0386 3.22068 83.3376C3.68339 83.4445 9.21761 84.8658 15.319 92.8355C23.7468 103.845 35.5639 97.5978 47.095 96.4938C47.9 96.4167 48.4892 95.7011 48.4122 94.8962C48.3352 94.0905 47.6187 93.4993 46.816 93.5771C34.7284 94.7345 24.8301 100.444 17.6424 91.0533C14.8059 87.3484 12.0571 84.9192 9.76112 83.3338C18.6532 82.8372 26.5589 80.4064 33.1947 76.4979C37.3766 74.0336 42.6089 73.6239 47.1781 75.6144C49.2073 76.4979 51.5353 76.4979 53.5638 75.6144C58.104 73.6369 63.3333 74.0145 67.5472 76.4979C74.6685 80.691 82.6985 82.8715 90.9815 83.3338C88.6847 84.9185 85.9359 87.3484 83.0994 91.0533C75.9126 100.443 66.0242 94.7352 53.9259 93.5771C53.1239 93.4985 52.4059 94.0905 52.3289 94.8962C52.2519 95.7011 52.8419 96.4167 53.6469 96.4938C65.1544 97.5955 76.9996 103.84 85.4229 92.8355C91.5845 84.7872 97.0326 83.4429 97.5174 83.3376C100.617 83.0432 101.405 78.8943 98.6029 77.5095ZM64.8411 48.1218L55.734 57.2374L53.3313 54.8319L54.384 53.7783C54.9557 53.2061 54.9557 52.2783 54.384 51.7069C53.8123 51.1347 52.8853 51.1347 52.3144 51.7069L51.2609 52.7605L48.5998 50.0971L49.6525 49.0435C50.2242 48.4713 50.2242 47.5435 49.6525 46.9713C49.0808 46.3991 48.1538 46.3991 47.5829 46.9713L46.5301 48.0257L45.0056 46.4991C45.0048 46.4991 45.0048 46.4983 45.004 46.4983L43.8682 45.3615L44.9217 44.3079C45.4934 43.7357 45.4934 42.8079 44.9217 42.2365C44.35 41.6643 43.4231 41.6643 42.8513 42.2365L41.7986 43.2901L39.1375 40.6267L40.1902 39.5731C40.7619 39.0009 40.7619 38.0731 40.1902 37.5017C39.6185 36.9295 38.6915 36.9295 38.1206 37.5017L37.0671 38.5553L34.4547 35.9399L43.5618 26.8251L64.8411 48.1218ZM31.5336 21.5776L34.4662 24.5126C33.3395 25.6402 33.2732 25.7066 32.145 26.8358L29.2125 23.9007C29.868 23.2454 29.958 23.1553 31.5336 21.5776ZM30.8216 32.3038C32.7533 30.3705 38.0306 25.0886 39.9287 23.1889L41.4914 24.7529L32.3843 33.8678C31.0763 32.5578 31.1982 32.6799 30.8216 32.3038ZM37.8591 21.1168L36.5358 22.4412L33.604 19.5062C34.0774 19.0317 34.5226 18.5861 34.9266 18.1817L37.8591 21.1168ZM65.7703 58.8183C65.6743 58.9136 65.5454 58.9686 65.4105 58.9731L58.9051 58.2071L65.8107 51.2957C66.3474 55.8596 66.2628 55.147 66.5761 57.8074C66.5715 57.9416 66.5166 58.0706 66.4206 58.1667L66.0958 58.4917C66.0958 58.4917 65.7833 58.8045 65.7703 58.8183ZM25.8195 27.2966C26.2235 26.893 26.6687 26.4474 27.1428 25.9729L30.0746 28.9079L28.752 30.2316L25.8195 27.2966ZM25.8309 15.8708L23.5098 18.1939L17.9481 12.6268L20.2693 10.3044L25.8309 15.8708ZM35.0028 13.9619C34.4379 14.528 22.2817 26.6939 21.6033 27.3736C21.4958 27.4805 21.3228 27.4805 21.2153 27.3736L20.0406 26.1972C19.9331 26.0896 19.9331 25.9172 20.0406 25.8096L33.4409 12.3979C33.5476 12.2911 33.7214 12.2911 33.8281 12.3979L35.0028 13.5743C35.1103 13.6811 35.1103 13.8551 35.0028 13.9619ZM97.3977 80.295C97.3741 80.408 97.3017 80.4209 97.2224 80.4247C79.2064 81.322 69.578 73.9756 66.5844 72.7663C62.0412 70.9307 56.9072 70.9635 52.396 72.9281C51.1092 73.4881 49.6327 73.4881 48.3459 72.9281C42.8597 70.5386 36.6341 71.0718 31.7097 73.9733C21.5476 79.9609 10.7704 80.7864 3.51949 80.4247C3.44098 80.4209 3.3678 80.408 3.34417 80.295C3.32435 80.1989 3.36551 80.1714 3.43564 80.1371C9.43181 77.1723 20.5002 70.376 27.2549 58.1583C31.3598 50.7334 36.737 47.6137 43.2439 48.8802L54.6996 60.3449C54.9374 60.5829 55.2545 60.7279 55.5633 60.7645L65.1422 61.8921C65.6423 61.9501 66.4259 61.8128 67.0251 61.4947L76.5895 71.0673C77.1612 71.6395 78.0882 71.6395 78.6599 71.0673C79.2316 70.4951 79.2316 69.5673 78.6599 68.9959L69.0931 59.421C69.4789 58.6969 69.5391 57.931 69.4918 57.538L68.8515 52.0914C70.5491 53.6211 72.1011 55.6505 73.4877 58.1583C80.2424 70.376 91.3101 77.1731 97.307 80.1371C97.3764 80.1714 97.4175 80.1989 97.3977 80.295Z" fill="#42AF54"/>
</g>
<defs>
<clipPath id="clip0">
<rect width="99.9146" height="100" fill="white" transform="translate(0.414307)"/>
</clipPath>
</defs>
</svg>
