<svg width="23" height="24" viewBox="0 0 23 24" fill="none" xmlns="http://www.w3.org/2000/svg">
<path d="M19.3093 10C19.3093 17 11.0338 23 11.0338 23C11.0338 23 2.75842 17 2.75842 10C2.75842 7.61305 3.6303 5.32387 5.18224 3.63604C6.73418 1.94821 8.83907 1 11.0338 1C13.2286 1 15.3335 1.94821 16.8855 3.63604C18.4374 5.32387 19.3093 7.61305 19.3093 10Z" stroke="#42AF54" stroke-width="2" stroke-linecap="round" stroke-linejoin="round"/>
<path d="M11.0339 13C12.5573 13 13.7923 11.6569 13.7923 10C13.7923 8.34315 12.5573 7 11.0339 7C9.5104 7 8.27539 8.34315 8.27539 10C8.27539 11.6569 9.5104 13 11.0339 13Z" stroke="#42AF54" stroke-width="2" stroke-linecap="round" stroke-linejoin="round"/>
</svg>
