<svg width="82" height="82" viewBox="0 0 82 82" fill="none" xmlns="http://www.w3.org/2000/svg">
<path d="M27.8355 46.9364C23.5512 46.9413 19.4437 48.6454 16.4142 51.6749C13.3847 54.7044 11.6806 58.8119 11.6758 63.0962V78.883C11.6758 79.1378 11.777 79.3823 11.9572 79.5625C12.1374 79.7427 12.3819 79.8439 12.6367 79.8439H24.442C24.5642 79.8683 24.6901 79.8683 24.8123 79.8439H69.3641C69.6189 79.8439 69.8633 79.7427 70.0435 79.5625C70.2238 79.3823 70.325 79.1378 70.325 78.883V63.0962C70.3202 58.8119 68.6161 54.7044 65.5866 51.6749C62.5571 48.6454 58.4496 46.9413 54.1652 46.9364H50.9543V43.2538C54.23 40.6393 56.3377 36.8345 56.8169 32.6708C56.8241 32.6092 56.8291 32.5466 56.8352 32.4846C57.1007 32.2964 57.3105 32.1676 57.5011 32.0507C57.9969 31.7804 58.429 31.407 58.7684 30.9557C60.2396 29.0283 60.7097 25.5525 59.087 24.1268C58.8369 23.9101 58.5469 23.7444 58.2332 23.639V12.5464C58.2301 9.78683 57.1325 7.14115 55.1812 5.18981C53.2299 3.23847 50.5842 2.14083 47.8246 2.1377H33.8034C31.0439 2.14087 28.3982 3.23853 26.4469 5.18986C24.4956 7.14119 23.398 9.78684 23.3949 12.5464V23.8035C23.2213 23.8836 23.0586 23.9852 22.9104 24.106C22.2586 24.6413 21.9066 25.546 21.8925 26.7225C21.8915 27.637 22.052 28.5445 22.3665 29.4032C22.9607 31.0092 23.994 31.9176 24.9056 32.7184C25.0149 32.8145 25.1232 32.9106 25.2308 33.0067C25.7762 36.9923 27.8154 40.6218 30.9357 43.1606V46.9356L27.8355 46.9364ZM40.0395 77.922H25.5889V66.9545C25.5889 66.6997 25.4876 66.4553 25.3074 66.2751C25.1272 66.0948 24.8828 65.9936 24.6279 65.9936C24.3731 65.9936 24.1287 66.0948 23.9485 66.2751C23.7682 66.4553 23.667 66.6997 23.667 66.9545V77.922H13.5985V63.0962C13.6027 59.3214 15.1041 55.7024 17.7733 53.0332C20.4425 50.364 24.0615 48.8626 27.8363 48.8583H30.9359V50.1449C30.9357 50.3317 30.9901 50.5146 31.0923 50.671C31.1945 50.8275 31.3401 50.9507 31.5113 51.0257L35.9699 52.9796C37.2599 53.5421 38.6359 53.8818 40.0395 53.9841V77.922ZM54.1652 48.8583C57.9401 48.8626 61.5591 50.364 64.2283 53.0332C66.8975 55.7024 68.3989 59.3214 68.4031 63.0962V77.922H58.2707V66.9545C58.2707 66.6997 58.1694 66.4553 57.9892 66.2751C57.809 66.0948 57.5646 65.9936 57.3097 65.9936C57.0549 65.9936 56.8105 66.0948 56.6303 66.2751C56.45 66.4553 56.3488 66.6997 56.3488 66.9545V77.922H41.9613V53.9796C43.3643 53.8702 44.7386 53.5236 46.0258 52.9546L50.3828 51.0224C50.5529 50.947 50.6974 50.8238 50.7988 50.6679C50.9003 50.5119 50.9543 50.3299 50.9543 50.1439V48.8577L54.1652 48.8583ZM52.7906 32.8086C52.7406 31.4199 52.5028 30.0443 52.0835 28.7195C52.01 28.4781 51.9117 28.2451 51.7903 28.0239C52.5746 27.339 53.4308 26.741 54.344 26.2404L54.8555 29.8555C54.9341 30.3988 54.9715 30.9474 54.9676 31.4964C54.1791 32.1431 53.4502 32.8592 52.7895 33.6359C52.7956 33.3594 52.798 33.0834 52.79 32.8086H52.7906ZM50.464 26.6307C50.2514 26.4996 50.0261 26.3905 49.7914 26.3051C46.3491 25.0308 42.6737 24.5093 39.0128 24.7758C36.5657 24.9368 34.1494 25.4117 31.8233 26.1888C31.5148 26.2925 31.2215 26.4366 30.9511 26.6174C30.0147 25.8066 28.9923 25.1007 27.9022 24.5125L29.2343 15.0982C29.4088 13.7201 30.0639 12.4478 31.0842 11.5053C32.1046 10.5628 33.4247 10.0105 34.8123 9.94563C36.5668 11.0121 38.5685 11.6039 40.6209 11.6629C42.6733 11.7219 44.7057 11.246 46.5186 10.282L47.1536 9.94387C48.55 10.0017 49.8807 10.553 50.9088 11.4998C51.937 12.4465 52.5959 13.7273 52.7685 15.1142L54.06 24.2396C52.7572 24.8677 51.5472 25.6723 50.464 26.6307ZM50.1886 37.574C50.1275 37.7757 50.017 37.9588 49.867 38.1068C49.7171 38.2548 49.5325 38.363 49.3301 38.4214C46.594 39.2448 43.7504 39.6559 40.8931 39.6413H40.8676C37.7265 39.6389 34.6015 39.1933 31.585 38.3176C31.5025 38.2925 31.4322 38.2378 31.3877 38.164C31.3769 38.1421 31.3659 38.1205 31.3556 38.0985C31.3462 38.0758 31.3392 38.0522 31.3348 38.0281C31.0557 36.0831 30.9507 34.117 31.0211 32.1534C31.0531 31.2671 31.1223 30.3708 31.2264 29.4892C31.2671 29.1541 31.402 28.8374 31.6154 28.5758C31.8288 28.3143 32.1119 28.1185 32.432 28.0113C34.6019 27.2864 36.8559 26.8433 39.1387 26.6929C39.7313 26.6541 40.3029 26.6363 40.8524 26.6363C43.6801 26.6287 46.4863 27.1284 49.1376 28.1117C49.3993 28.2067 49.6354 28.3612 49.8272 28.5631C50.019 28.765 50.1612 29.0086 50.2427 29.2749C50.612 30.4377 50.8225 31.6451 50.8683 32.8643C50.9004 34.4608 50.6708 36.0518 50.1886 37.574ZM57.8186 25.5708C58.4135 26.0934 58.3543 28.3308 57.2407 29.7895C57.1273 29.9481 56.9882 30.0867 56.8291 30.1996C56.8097 29.9964 56.787 29.7922 56.7578 29.5861L56.1795 25.5005C56.9872 25.2987 57.5676 25.3503 57.8186 25.5708ZM25.2428 29.5861C25.208 29.8324 25.181 30.0765 25.16 30.3188C24.7269 29.8631 24.3898 29.325 24.1689 28.7364C23.6696 27.3865 23.7391 25.9121 24.1299 25.5915C24.3541 25.4074 24.9388 25.3908 25.7955 25.6773L25.2428 29.5861ZM25.3166 23.6006V12.5464C25.3192 10.2964 26.2141 8.13921 27.8051 6.54817C29.3961 4.95714 31.5532 4.06216 33.8033 4.05957H47.8242C50.0743 4.06203 52.2316 4.95696 53.8227 6.54801C55.4138 8.13905 56.3088 10.2963 56.3113 12.5464V23.5205C56.1802 23.5405 56.0459 23.5669 55.9109 23.5966L54.6744 14.8599C54.4357 12.9716 53.5169 11.2351 52.09 9.97553C50.6631 8.71595 48.8261 8.01965 46.9228 8.01703H46.6826L45.6158 8.58511C44.06 9.41249 42.3117 9.81018 40.5511 9.73721C38.7905 9.66425 37.0811 9.12326 35.5991 8.16998L35.3616 8.01703H35.0789C33.1781 8.01883 31.343 8.7129 29.9168 9.96946C28.4906 11.226 27.5709 12.9591 27.3296 14.8445L26.0676 23.7622C25.8209 23.6926 25.5702 23.6386 25.3168 23.6006H25.3166ZM27.1458 29.8555L27.6134 26.5503C28.3407 26.9975 29.0316 27.5016 29.6794 28.0577C29.4901 28.4359 29.3677 28.844 29.3175 29.264C29.2073 30.1971 29.1341 31.1458 29.1001 32.084C29.0723 32.8547 29.0702 33.6275 29.0941 34.4025C28.4771 33.5788 27.797 32.8044 27.0601 32.0861C27.0092 31.3416 27.038 30.5938 27.1459 29.8555H27.1458ZM28.1464 36.3842C28.6829 37.1825 29.1668 38.0148 29.595 38.8759C29.6291 38.9555 29.6677 39.0329 29.7107 39.108L29.7135 39.1136L29.7172 39.1199C29.0917 38.2705 28.5647 37.3527 28.1466 36.3842H28.1464ZM31.0491 40.1639C34.2392 41.0901 37.544 41.5614 40.8659 41.5638H40.8931C43.9334 41.5796 46.959 41.1424 49.8705 40.2666C50.3197 40.136 50.7346 39.9079 51.0856 39.5985C51.4365 39.2891 51.7148 38.906 51.9006 38.4767L51.9029 38.4778C52.5751 37.0797 53.4413 35.7837 54.4761 34.628C53.7767 37.1021 52.4097 39.336 50.525 41.0849C48.6403 42.8337 46.3106 44.0301 43.7911 44.5428C41.2717 45.0556 38.6597 44.865 36.2414 43.9918C33.8231 43.1187 31.6917 41.5968 30.0809 39.5928C30.3508 39.8612 30.6837 40.0574 31.0492 40.1634L31.0491 40.1639ZM41.0004 46.7452C43.8233 46.7474 46.5958 45.997 49.0324 44.5714V49.5202L45.2466 51.1992C43.9076 51.7915 42.46 52.099 40.9958 52.1023C39.5316 52.1056 38.0827 51.8046 36.741 51.2184L32.8576 49.5172V44.5074C35.32 45.9747 38.1339 46.748 41.0004 46.7452Z" fill="#42AF54"/>
<path d="M48.2401 28.9817C43.338 28.0504 38.3043 28.0504 33.4022 28.9817C33.2778 29.0049 33.1593 29.0523 33.0533 29.1214C32.9474 29.1905 32.8561 29.2798 32.7847 29.3842C32.7134 29.4887 32.6633 29.6062 32.6375 29.73C32.6116 29.8538 32.6105 29.9815 32.6341 30.1058C32.6577 30.23 32.7056 30.3484 32.7751 30.4541C32.8445 30.5598 32.9342 30.6508 33.0389 30.7217C33.1435 30.7927 33.2612 30.8423 33.3851 30.8677C33.509 30.8931 33.6367 30.8938 33.7609 30.8698C38.426 29.9835 43.2163 29.9835 47.8814 30.8698C48.1314 30.9163 48.3896 30.8619 48.5995 30.7185C48.8094 30.575 48.9539 30.3542 49.0014 30.1045C49.0489 29.8547 48.9954 29.5963 48.8527 29.3858C48.71 29.1754 48.4898 29.0301 48.2401 28.9817Z" fill="#42AF54"/>
<path d="M48.0613 32.4956H33.582C33.3272 32.4956 33.0828 32.5968 32.9025 32.7771C32.7223 32.9573 32.6211 33.2017 32.6211 33.4565C32.6211 33.7114 32.7223 33.9558 32.9025 34.136C33.0828 34.3162 33.3272 34.4175 33.582 34.4175H48.0613C48.3161 34.4175 48.5606 34.3162 48.7408 34.136C48.921 33.9558 49.0222 33.7114 49.0222 33.4565C49.0222 33.2017 48.921 32.9573 48.7408 32.7771C48.5606 32.5968 48.3161 32.4956 48.0613 32.4956Z" fill="#42AF54"/>
<path d="M47.833 35.8991C45.5918 36.4471 43.2941 36.7307 40.9869 36.7441C38.5691 36.7587 36.1588 36.4749 33.8105 35.8991C33.5629 35.8385 33.3014 35.8788 33.0835 36.011C32.8656 36.1433 32.7092 36.3566 32.6486 36.6042C32.5881 36.8518 32.6283 37.1133 32.7605 37.3312C32.8928 37.5491 33.1061 37.7055 33.3537 37.7661C35.7982 38.3639 38.3055 38.6661 40.822 38.6665H40.9981C43.4556 38.6522 45.9029 38.3502 48.29 37.7665C48.5376 37.706 48.751 37.5495 48.8832 37.3316C49.0154 37.1138 49.0557 36.8523 48.9951 36.6047C48.9346 36.3571 48.7781 36.1437 48.5602 36.0115C48.3423 35.8793 48.0809 35.839 47.8333 35.8996L47.833 35.8991Z" fill="#42AF54"/>
<path d="M48.0047 62.7681H45.4238C45.169 62.7681 44.9246 62.8693 44.7443 63.0495C44.5641 63.2297 44.4629 63.4741 44.4629 63.729C44.4629 63.9839 44.5641 64.2283 44.7443 64.4085C44.9246 64.5887 45.169 64.6899 45.4238 64.6899H48.0047C48.2596 64.6899 48.504 64.5887 48.6842 64.4085C48.8644 64.2283 48.9657 63.9839 48.9657 63.729C48.9657 63.4741 48.8644 63.2297 48.6842 63.0495C48.504 62.8693 48.2596 62.7681 48.0047 62.7681Z" fill="#42AF54"/>
<path d="M48.0047 70.0308H45.4238C45.169 70.0308 44.9246 70.132 44.7443 70.3122C44.5641 70.4924 44.4629 70.7368 44.4629 70.9917C44.4629 71.2466 44.5641 71.491 44.7443 71.6712C44.9246 71.8514 45.169 71.9526 45.4238 71.9526H48.0047C48.2596 71.9526 48.504 71.8514 48.6842 71.6712C48.8644 71.491 48.9657 71.2466 48.9657 70.9917C48.9657 70.7368 48.8644 70.4924 48.6842 70.3122C48.504 70.132 48.2596 70.0308 48.0047 70.0308Z" fill="#42AF54"/>
</svg>
