<svg width="32" height="32" viewBox="0 0 32 32" fill="none" xmlns="http://www.w3.org/2000/svg">
<path d="M28.25 4.25H3.75C1.68225 4.25 0 5.93225 0 8V24C0 26.0677 1.68225 27.75 3.75 27.75H28.25C30.3177 27.75 32 26.0677 32 24V8C32 5.93225 30.3177 4.25 28.25 4.25ZM29.5 24C29.5 24.6893 28.9393 25.25 28.25 25.25H3.75C3.06075 25.25 2.5 24.6893 2.5 24V8C2.5 7.31075 3.06075 6.75 3.75 6.75H28.25C28.9393 6.75 29.5 7.31075 29.5 8V24Z" fill="#42AF54"/>
<path d="M29.2864 5.80859L15.9986 15.6922L2.71088 5.80859L1.21875 7.81453L15.9986 18.8079L30.7785 7.81453L29.2864 5.80859Z" fill="#42AF54"/>
</svg>
