<svg width="82" height="82" viewBox="0 0 82 82" fill="none" xmlns="http://www.w3.org/2000/svg">
<g clip-path="url(#clip0)">
<path d="M6.40205 28.2574L6.88314 28.5227C8.20568 29.2515 9.81601 29.0069 10.8695 28.0015C14.4787 29.9903 16.2329 30.7023 17.9646 33.0827C20.5021 36.5711 24.0155 39.1074 28.1245 40.4186L37.336 43.3578C35.6475 45.6681 36.0222 48.9151 38.2494 50.7744C39.3304 51.6765 40.6686 52.1019 41.9949 52.0437C41.684 53.8974 42.3365 55.8643 43.8805 57.1531C46.2003 59.09 49.6449 58.7803 51.5818 56.4599L55.9323 51.2486C57.4844 51.4288 59.0547 50.8357 60.0969 49.6489L61.5721 54.9485C61.5227 55.1537 61.5246 55.3732 61.5922 55.5891L63.0073 60.116V60.1166C63.2988 61.0494 63.8763 61.6675 64.6845 62.0222C64.6458 62.7554 63.8131 67.7972 65.6267 72.9104C67.3578 77.7895 70.9407 80.9238 75.9868 81.973C76.8865 82.1606 77.6497 81.3079 77.3782 80.4383L74.9177 72.5675C74.72 71.9344 74.0462 71.5816 73.4131 71.7799C72.7799 71.9776 72.4271 72.6514 72.6248 73.2845L74.4178 79.0201C65.7099 75.658 66.836 64.397 67.0062 63.0382C67.0425 62.7492 67.0687 62.4577 67.0844 62.1649C67.1526 62.1455 68.8937 61.6006 68.965 61.578L70.95 67.9267C71.1477 68.5599 71.8221 68.9127 72.4546 68.7144C73.0877 68.5167 73.4406 67.8429 73.2429 67.2098L71.0264 60.1179C71.55 59.3302 71.6833 58.4594 71.3873 57.5128C75.2561 58.2654 78.4017 54.6356 77.2174 51.2179C75.146 45.239 72.1512 36.989 70.2368 31.4368C69.4167 29.0576 68.0097 26.8936 66.1679 25.1788L61.97 21.2706C61.4839 20.8183 60.7238 20.8458 60.2721 21.3313C59.8204 21.8167 59.8473 22.5769 60.3328 23.0292L64.5306 26.9374C66.0859 28.385 67.2733 30.2112 67.9659 32.2194C69.8852 37.7867 72.8782 46.0323 74.9471 52.005C75.1616 52.6231 75.0847 53.2937 74.7312 53.8918C73.5745 55.8468 70.6329 55.427 69.9634 53.7879L64.149 39.0648C63.2262 36.8001 61.6216 34.9327 59.5877 33.6821C57.9567 32.6798 58.2908 32.9076 42.1982 27.8758C41.4506 27.6418 40.6899 28.0034 40.3796 28.6935C40.0618 29.4016 40.3183 30.2006 40.9745 30.5953C47.098 34.2808 53.3222 39.2438 58.4785 44.1498C59.2417 44.8768 59.4582 46.0654 58.9246 47.0332L58.5867 47.6463C57.9655 48.7737 56.5673 49.1728 55.4887 48.6592C53.8909 47.916 43.3231 43.0024 41.6396 42.2192C41.5939 42.1979 41.5463 42.1791 41.4982 42.1641L28.8558 38.1302C25.2367 36.9753 22.1424 34.7412 19.9077 31.6695C17.8069 28.7823 15.5604 27.8433 12.1683 25.9739L23.022 6.27845C25.851 7.83748 29.3776 9.96893 35.1188 11.2621L48.8641 14.3576C50.7228 14.7761 52.4426 15.6833 53.8365 16.9814L56.225 19.2048C56.7105 19.6571 57.4706 19.6296 57.9223 19.1441C58.3746 18.6587 58.3477 17.8985 57.8616 17.4462L55.4737 15.2234C53.7683 13.635 51.6656 12.5258 49.3921 12.0134L35.6462 8.91791C30.2466 7.70172 26.9984 5.72667 23.9598 4.05253C24.1087 2.75376 23.4925 1.3843 22.225 0.685497L21.7433 0.420238C20.1023 -0.483769 18.0309 0.115566 17.1269 1.75654L5.06575 23.641C4.16174 25.282 4.76107 27.3534 6.40205 28.2574ZM47.6342 32.093L55.4799 34.546C56.3689 37.3888 56.1656 36.7388 57.0565 39.5897C53.8609 36.7613 50.5239 34.1331 47.6342 32.093ZM66.9349 52.6606L63.7098 53.6691L61.6141 46.1399C61.6747 45.0069 61.3163 43.8533 60.6281 42.9611C59.6903 39.9607 59.2361 38.5087 58.3759 35.7572C61.5202 37.7191 61.3732 38.5775 66.9349 52.6606ZM69.1245 58.3286C69.1245 58.3293 69.1245 58.3293 69.1251 58.3293C69.2321 58.6758 68.8474 59.0975 68.395 59.2389C67.2045 59.6111 67.6443 59.4735 66.4538 59.8457C65.9852 59.9921 65.4472 59.8532 65.3377 59.5173L64.3542 55.9845L67.827 54.899C67.9415 55.1436 68.116 55.4452 68.3025 55.6986C68.8373 57.4102 68.6791 56.9035 69.1245 58.3286ZM39.789 48.9301C38.4884 47.8446 38.3144 45.9134 39.4005 44.6127L39.7934 44.1417C40.9595 44.5139 39.9473 44.0822 45.6266 46.7229L43.487 49.1021C42.3559 49.8804 40.8507 49.8166 39.789 48.9301ZM49.7375 54.9203C48.652 56.2209 46.7201 56.3949 45.4201 55.3088C44.2408 54.3247 43.796 52.471 45.1912 50.8L47.9044 47.7821L53.5174 50.3921L49.7375 54.9203ZM7.1703 24.8009L19.2314 2.9158C19.4923 2.44221 20.1023 2.25953 20.5834 2.52479L21.0645 2.78942C21.5424 3.05281 21.7189 3.66465 21.4561 4.14199C21.4286 4.19142 9.4006 26.0171 9.39497 26.0265C9.12971 26.5076 8.52287 26.6834 8.0424 26.4181L7.56131 26.1528C7.08396 25.8901 6.90692 25.2782 7.1703 24.8009Z" fill="#42AF54"/>
</g>
<defs>
<clipPath id="clip0">
<rect width="82" height="82" fill="white"/>
</clipPath>
</defs>
</svg>
