<svg width="30" height="30" viewBox="0 0 30 30" fill="none" xmlns="http://www.w3.org/2000/svg">
<g clip-path="url(#clip0)">
<path d="M28.3759 3.74975C27.1764 4.5941 25.8483 5.23989 24.4428 5.66225C23.6884 4.79664 22.6858 4.18312 21.5706 3.90466C20.4554 3.6262 19.2815 3.69625 18.2075 4.10532C17.1335 4.51439 16.2113 5.24275 15.5656 6.1919C14.92 7.14104 14.582 8.26517 14.5974 9.41225V10.6623C12.3961 10.7192 10.2149 10.232 8.248 9.24406C6.28109 8.2561 4.58956 6.79805 3.32404 4.99975C3.32404 4.99975 -1.68634 16.2498 9.58701 21.2498C7.00733 22.9972 3.93425 23.8734 0.818848 23.7498C12.0922 29.9998 25.8707 23.7498 25.8707 9.37475C25.8696 9.02657 25.836 8.67925 25.7705 8.33725C27.0489 7.07912 27.9511 5.49064 28.3759 3.74975V3.74975Z" stroke="#42AF54" stroke-width="2" stroke-linecap="round" stroke-linejoin="round"/>
</g>
<defs>
<clipPath id="clip0">
<rect width="30" height="30" fill="white"/>
</clipPath>
</defs>
</svg>
