<svg width="56" height="56" viewBox="0 0 56 56" fill="none" xmlns="http://www.w3.org/2000/svg">
<path d="M29.052 13.4936C29.5053 13.4936 29.8728 13.1266 29.8728 12.6733C29.8728 12.22 29.5053 11.8525 29.052 11.8525H20.1713C19.718 11.8525 19.3506 12.22 19.3506 12.6733C19.3506 13.1266 19.718 13.4936 20.1713 13.4936H29.052Z" fill="#42AF54"/>
<path d="M33.4914 15.604H15.7299C15.2766 15.604 14.9092 15.9714 14.9092 16.4247C14.9092 16.8781 15.2766 17.2451 15.7299 17.2451H33.4914C33.9447 17.2451 34.3122 16.8781 34.3122 16.4247C34.3122 15.9714 33.9447 15.604 33.4914 15.604Z" fill="#42AF54"/>
<path d="M33.4914 19.355H15.7299C15.2766 19.355 14.9092 19.7224 14.9092 20.1757C14.9092 20.629 15.2766 20.996 15.7299 20.996H33.4914C33.9447 20.996 34.3122 20.629 34.3122 20.1757C34.3122 19.7224 33.9447 19.355 33.4914 19.355Z" fill="#42AF54"/>
<path d="M33.4914 23.1064H15.7299C15.2766 23.1064 14.9092 23.4739 14.9092 23.9272C14.9092 24.3805 15.2766 24.7479 15.7299 24.7479H33.4914C33.9447 24.7479 34.3122 24.3805 34.3122 23.9272C34.3122 23.4739 33.9447 23.1064 33.4914 23.1064Z" fill="#42AF54"/>
<path d="M33.4914 26.8574H15.7299C15.2766 26.8574 14.9092 27.2249 14.9092 27.6782C14.9092 28.1315 15.2766 28.4989 15.7299 28.4989H33.4914C33.9447 28.4989 34.3122 28.1315 34.3122 27.6782C34.3122 27.2249 33.9447 26.8574 33.4914 26.8574Z" fill="#42AF54"/>
<path d="M33.4914 30.6079H15.7299C15.2766 30.6079 14.9092 30.9753 14.9092 31.4286C14.9092 31.882 15.2766 32.2494 15.7299 32.2494H33.4914C33.9447 32.2494 34.3122 31.882 34.3122 31.4286C34.3122 30.9753 33.9447 30.6079 33.4914 30.6079Z" fill="#42AF54"/>
<path d="M50.7663 18.484C48.707 17.2685 46.202 16.7558 43.7133 17.1386V12.9259C43.7133 12.4726 43.3459 12.1052 42.8926 12.1052C42.4393 12.1052 42.0718 12.4726 42.0718 12.9259V17.5188C35.5187 19.6239 32.7109 27.281 36.1549 33.1014C35.3021 33.9277 30.3217 38.7547 29.2228 39.8198C26.6948 42.2701 22.7329 42.2709 20.2036 39.8198C19.5914 39.2259 8.4629 28.4405 7.35462 27.3664C7.35462 26.1078 7.35462 5.76569 7.35462 4.56427C7.35462 4.03791 7.78272 3.6098 8.30909 3.6098H41.1178C41.6437 3.6098 42.0718 4.03791 42.0718 4.56427V9.09651C42.0718 9.54981 42.4393 9.91725 42.8926 9.91725C43.3459 9.91725 43.7133 9.54981 43.7133 9.09651V4.56427C43.7133 3.133 42.5486 1.96875 41.1178 1.96875H8.30909C6.87782 1.96875 5.71357 3.133 5.71357 4.56427V19.6615H2.51477C1.12836 19.661 0 20.7894 0 22.1762V51.6665C0 53.0529 1.1275 54.1817 2.51477 54.1817H22.6958C23.1491 54.1817 23.5165 53.8143 23.5165 53.361C23.5165 52.9077 23.1491 52.5402 22.6958 52.5402H2.51477C2.14478 52.5402 1.81409 52.3014 1.69403 51.9626L16.0341 38.0643L19.0616 40.9982C22.2083 44.0483 27.2126 44.0538 30.3653 40.9982L33.3923 38.0643L47.7328 51.9626C47.6124 52.3027 47.2804 52.5402 46.9117 52.5402H26.5256C26.0723 52.5402 25.7049 52.9077 25.7049 53.361C25.7049 53.8143 26.0723 54.1817 26.5256 54.1817H46.9117C48.2985 54.1817 49.4264 53.0533 49.4264 51.6665V37.5379C57.5129 34.2049 58.3474 22.9726 50.7663 18.484ZM2.51477 21.3025H5.71357V25.7758L1.69403 21.8802C1.82263 21.526 2.1593 21.3025 2.51477 21.3025ZM1.64148 49.7281V24.1147C2.17298 24.6299 14.3234 36.4061 14.8549 36.9214L1.64148 49.7281ZM52.2852 21.9007C52.6475 22.3347 52.9312 22.7509 53.1896 23.2042L47.5055 28.8878L46.402 27.7843L52.2852 21.9007ZM51.1248 20.7403L45.2411 26.6239L44.1376 25.5199L49.8212 19.8358C50.3181 20.119 50.7197 20.4027 51.1248 20.7403ZM42.5546 28.5884L43.2536 26.9576C45.0843 28.7883 44.5426 28.2466 46.0679 29.7718L44.4371 30.4708L42.5546 28.5884ZM42.8122 31.1672L41.1955 31.8602C41.1879 31.8636 41.1836 31.8645 41.1836 31.8649C41.1755 31.8623 41.1626 31.8491 41.1609 31.844C41.1609 31.844 41.1614 31.8397 41.1652 31.8303L41.8582 30.2136L42.8122 31.1672ZM47.7854 49.7281L34.5715 36.9214L37.1089 34.4621C39.725 37.6357 43.8812 38.9837 47.7854 38.0694V49.7281ZM41.9193 36.0323C40.3351 35.3846 38.8816 34.2506 37.8438 32.7023C33.1086 25.6459 39.9813 16.3734 48.2165 19.1193L42.3961 24.9397C42.3188 25.0187 42.2598 25.1093 42.2154 25.2127C41.9137 25.9172 39.9416 30.5187 39.6566 31.1834C39.0657 32.5617 40.4624 33.9601 41.842 33.3688C42.5461 33.0672 47.1099 31.1112 47.8136 30.8096C47.814 30.8092 47.8144 30.8092 47.8149 30.8088C47.9243 30.7618 48.0144 30.6998 48.0858 30.6289L53.9061 24.8089C56.356 32.1567 49.0338 38.9581 41.9193 36.0323Z" fill="#42AF54"/>
</svg>
